<?xml version="1.0" encoding="UTF-8"?>
<svg id="Capa_1" xmlns="http://www.w3.org/2000/svg" version="1.1" viewBox="0 0 573.21 113.11">
  <!-- Generator: Adobe Illustrator 29.5.1, SVG Export Plug-In . SVG Version: 2.1.0 Build 141)  -->
  <defs>
    <style>
      .st0 {
        fill: #8cd6fb;
      }

      .st1 {
        fill: #5fb7dd;
      }

      .st2 {
        fill: #69bfe6;
      }

      .st3 {
        fill: #39a3d0;
      }

      .st4 {
        fill: #5db8e1;
      }

      .st5 {
        fill: #59b7dc;
      }

      .st6 {
        fill: #389dce;
      }

      .st7 {
        fill: #6ac2e8;
      }

      .st8 {
        fill: #68bced;
      }

      .st9 {
        fill: #1d62a5;
      }

      .st10 {
        fill: #195f99;
      }

      .st11 {
        fill: #80cff2;
      }

      .st12 {
        fill: #3aa2d2;
      }

      .st13 {
        fill: #83d2f5;
      }

      .st14 {
        fill: #3ba3d0;
      }

      .st15 {
        fill: #a8daf1;
      }

      .st16 {
        fill: #4ea7cc;
      }

      .st17 {
        fill: #2f8dc1;
      }

      .st18 {
        fill: #56b5dd;
      }

      .st19 {
        fill: #9edcf4;
      }

      .st20 {
        fill: #175ea3;
      }

      .st21 {
        fill: #5fbbe3;
      }

      .st22 {
        fill: #67bfe6;
      }

      .st23 {
        fill: #5fbbe4;
      }

      .st24 {
        fill: #52b1db;
      }

      .st25 {
        fill: #5db3d9;
      }

      .st26 {
        fill: #1b619b;
      }

      .st27 {
        fill: #267ab3;
      }

      .st28 {
        fill: #6ec3e9;
      }

      .st29 {
        fill: #257fb4;
      }

      .st30 {
        fill: #8cd7f9;
      }

      .st31 {
        fill: #91d9f3;
      }

      .st32 {
        fill: #2784b8;
      }

      .st33 {
        fill: #175d97;
      }

      .st34 {
        fill: #3da0ce;
      }

      .st35 {
        fill: #9bcadd;
      }

      .st36 {
        fill: #39a8dc;
      }

      .st37 {
        fill: #51bded;
      }

      .st38 {
        fill: #2d8cc1;
      }

      .st39 {
        fill: #3ea2cf;
      }

      .st40 {
        fill: #72c6eb;
      }

      .st41 {
        fill: #49acd6;
      }

      .st42 {
        fill: #3f9ecb;
      }

      .st43 {
        fill: #3ca1d1;
      }

      .st44 {
        fill: #88d6f8;
      }

      .st45 {
        fill: #52b2dc;
      }

      .st46 {
        fill: #6bb8d7;
      }

      .st47 {
        fill: #57b6de;
      }

      .st48 {
        fill: #68c0e7;
      }

      .st49 {
        fill: #81d1f3;
      }

      .st50 {
        fill: #70c4ed;
      }

      .st51 {
        fill: #82d2f5;
      }

      .st52 {
        fill: #1d6fa9;
      }

      .st53 {
        fill: #71c5ea;
      }

      .st54 {
        fill: #5db9e2;
      }

      .st55 {
        fill: #40aad7;
      }

      .st56 {
        fill: #75c9ee;
      }

      .st57 {
        fill: #6cc2e9;
      }

      .st58 {
        fill: #63bce3;
      }

      .st59 {
        fill: #68bee4;
      }

      .st60 {
        fill: #85d3f5;
      }

      .st61 {
        fill: #61bce5;
      }

      .st62 {
        fill: #62bde6;
      }

      .st63 {
        fill: #4ca6d1;
      }

      .st64 {
        fill: #8ad7fb;
      }

      .st65 {
        fill: #65bee6;
      }

      .st66 {
        fill: #61b9e1;
      }

      .st67 {
        fill: #8ed7f6;
      }

      .st68 {
        fill: #66c1ea;
      }

      .st69 {
        fill: #42a6d1;
      }

      .st70 {
        fill: #6bc2e8;
      }

      .st71 {
        fill: #57c6f4;
      }

      .st72 {
        fill: #6bb1c9;
      }

      .st73 {
        fill: #79caef;
      }

      .st74 {
        fill: #57b3d8;
      }

      .st75 {
        fill: #3ea8d6;
      }

      .st76 {
        fill: #185fa4;
      }

      .st77 {
        fill: #82d0f7;
      }

      .st78 {
        fill: #48aad5;
      }

      .st79 {
        fill: #2376b1;
      }

      .st80 {
        fill: #81d1f2;
      }

      .st81 {
        fill: #7fcff3;
      }

      .st82 {
        fill: #8cd5fc;
      }

      .st83 {
        fill: #7ecff1;
      }

      .st84 {
        fill: #6ec2ea;
      }

      .st85 {
        fill: #50b0db;
      }

      .st86 {
        isolation: isolate;
      }

      .st87 {
        fill: #5cbae0;
      }

      .st88 {
        fill: #46a5cb;
      }

      .st89 {
        fill: #469abf;
      }

      .st90 {
        fill: #064e82;
      }

      .st91 {
        fill: #3395c7;
      }

      .st92 {
        fill: #6dc3e9;
      }

      .st93 {
        fill: #84d3f5;
      }

      .st94 {
        fill: #8bd6f6;
      }

      .st95 {
        fill: #5fbae3;
      }

      .st96 {
        fill: #66bfe6;
      }

      .st97 {
        fill: #93d7f5;
      }

      .st98 {
        fill: #62bbe3;
      }

      .st99 {
        fill: #2c86ad;
      }

      .st100 {
        fill: #86d5f6;
      }

      .st101 {
        fill: #71c6ec;
      }

      .st102 {
        fill: #57b5dd;
      }

      .st103 {
        fill: #6fc4eb;
      }

      .st104 {
        fill: #5ab6df;
      }

      .st105 {
        fill: #66bee6;
      }

      .st106 {
        fill: #65bde4;
      }

      .st107 {
        fill: #89d7fb;
      }

      .st108 {
        fill: #6cc3e9;
      }

      .st109 {
        fill: #58b5df;
      }

      .st110 {
        fill: #3293bd;
      }

      .st111 {
        fill: #0e5384;
      }

      .st112 {
        fill: #0c5690;
      }

      .st113 {
        fill: #7ccef2;
      }

      .st114 {
        fill: #3ca2ce;
      }

      .st115 {
        fill: #74c7ed;
      }

      .st116 {
        fill: #5cb7e0;
      }

      .st117 {
        fill: #46b0e0;
      }

      .st118 {
        fill: #185e9d;
      }

      .st119 {
        fill: #41a6d1;
      }

      .st120 {
        fill: #64bde5;
      }

      .st121 {
        fill: #3ea4d3;
      }

      .st122 {
        fill: #3294c5;
      }

      .st123 {
        fill: #45a9d5;
      }

      .st124 {
        fill: #9ad6f1;
      }

      .st125 {
        fill: #4eafd9;
      }

      .st126 {
        fill: #3aa3d1;
      }

      .st127 {
        fill: #58b8e1;
      }

      .st128 {
        fill: #08508a;
      }

      .st129 {
        fill: #6cc0e1;
      }

      .st130 {
        fill: #54b3dd;
      }

      .st131 {
        fill: #3599ca;
      }

      .st132 {
        fill: #5bb7e0;
      }

      .st133 {
        fill: #77caee;
      }

      .st134 {
        fill: #58c7f7;
      }

      .st135 {
        fill: #2e88b3;
      }

      .st136 {
        fill: #3292bb;
      }

      .st137 {
        fill: #2c87bd;
      }

      .st138 {
        fill: #54b6de;
      }

      .st139 {
        fill: #39a3d1;
      }

      .st140 {
        fill: #42a7d3;
      }

      .st141 {
        fill: #399ece;
      }

      .st142 {
        fill: #5dcaf5;
      }

      .st143 {
        fill: #0b5895;
      }

      .st144 {
        fill: #58c3f1;
      }

      .st145 {
        fill: #2b88bb;
      }

      .st146 {
        fill: #4ebaea;
      }

      .st147 {
        fill: #359bca;
      }

      .st148 {
        fill: #1a5ea4;
      }

      .st149 {
        fill: #78c9ef;
      }

      .st150 {
        fill: #6bc2e9;
      }

      .st151 {
        fill: #7accf0;
      }

      .st152 {
        fill: #7dcff8;
      }

      .st153 {
        fill: #89d6f8;
      }

      .st154 {
        fill: #7dcdf1;
      }

      .st155 {
        fill: #78caef;
      }

      .st156 {
        fill: #3190c4;
      }

      .st157 {
        fill: #3fb2e0;
      }

      .st158 {
        fill: #41abdb;
      }

      .st159 {
        fill: #68c0e8;
      }

      .st160 {
        fill: #86d5f8;
      }

      .st161 {
        fill: #95daf4;
      }

      .st162 {
        fill: #61bae2;
      }

      .st163 {
        fill: #88d5f7;
      }

      .st164 {
        fill: #4cadd8;
      }

      .st165 {
        fill: #79cbf0;
      }

      .st166 {
        fill: #61bbe4;
      }

      .st167 {
        fill: #4bb5e6;
      }

      .st168 {
        fill: #165fa1;
      }

      .st169 {
        fill: #49a9d0;
      }

      .st170 {
        fill: #44aedd;
      }

      .st171 {
        fill: #49b2e2;
      }

      .st172 {
        fill: #2e8ab1;
      }

      .st173 {
        fill: #155e99;
      }

      .st174 {
        fill: #369fce;
      }

      .st175 {
        fill: #6ac1e8;
      }

      .st176 {
        fill: #135992;
      }

      .st177 {
        fill: #3e8eb2;
      }

      .st178 {
        fill: #54c2f2;
      }

      .st179 {
        fill: #67bee8;
      }

      .st180 {
        fill: #4599bd;
      }

      .st181 {
        fill: #8cd6f9;
      }

      .st182 {
        fill: #14599a;
      }

      .st183 {
        fill: #155b96;
      }

      .st184 {
        fill: #53bfef;
      }

      .st185 {
        fill: #73c6eb;
      }

      .st186 {
        fill: #5ebbdf;
      }

      .st187 {
        fill: #74caf1;
      }

      .st188 {
        fill: #58b9df;
      }

      .st189 {
        fill: #3ba5d4;
      }

      .st190 {
        fill: #3e9ac2;
      }

      .st191 {
        fill: #175d98;
      }

      .st192 {
        fill: #338cba;
      }

      .st193 {
        fill: #74c8ed;
      }

      .st194 {
        fill: #3ca2cf;
      }

      .st195 {
        fill: #7ecff3;
      }

      .st196 {
        fill: #196097;
      }

      .st197 {
        fill: #2981b8;
      }

      .st198 {
        fill: #3ca5d3;
      }

      .st199 {
        fill: #6fc4ea;
      }
    </style>
  </defs>
  <path class="st181" d="M98.66,9.85l.36-.2c3.13,3.38,6.28,6.96,9.14,10.78,1.9,1.62,3.6,3.44,5.12,5.47,1.03.64,1.97,1.49,2.56,2.55,3,3.19,6.22,6.39,9.13,9.48.74.6,2,1.8,2.19,2.55.79.2.91.44.37.73.33,1-.52,1.21-1.1.36l-1.76,1.52c-3.92,1.1-7.42,2.91-10.91,5.04-2.03.29-2.22.41-3.53,1.91-2.45,1.26-4.72,2.57-6.82,3.94-.88-.23-1.75-.6-2.53-1.05-.82-6.17-1.56-12.39-2.22-18.65-.73-8.1-.97-16.07-.73-23.91,0,0,.73-.52.73-.52Z"/>
  <path class="st181" d="M89.89,11.67c.69-.59,1.32-1.29,1.9-2.08.32-.05,2.09,1.04,2.49,1.35.6,1.75,0,2.55-1.89,2.84-.63,4.08-.23,8.22,1.18,12.43,0,6.58-.15,13.16-.44,19.75.31,2.3.08,4.36-.68,6.19l-.61.53-19-8.66c-2.08-.53-4.07-1.15-5.97-1.87l.36-.57c-.75-.38,0-1.28.73-1.46,5.86-7.44,11.78-15.02,17.54-22.61,1.72-1.79,3.18-3.73,4.38-5.83h.01Z"/>
  <path class="st139" d="M26.67,31.36c1.01,0,.63.72.94.73,3.22.15,5.52.98,8.26,1.17,1.53.11,1.86,1,1.98,1.01,7.23.33,15.11,3.27,21.88,4.1.62.07,1.2.29,1.83.3.18.07.2.18.19.36.83.1,1.44.34,1.83.73.35.02.78-.2,1.1-.36,1.9,1.45-3.38,1.72-3.65.36l-1.26.3c-1.44-.28-2.61-.13-3.49.43-4.26.07-8.31.65-12.16,1.76-1.97-.19-3.89-.65-5.74-1.4-.78.26-1.78.24-1.46-.73-1.28-.55-2.38-1.16-3.29-1.82-3.96-1.02-8.38-2.75-11.69-5.11.15-.71.92-.86,2.31-.45.68-.8,1.5-1.26,2.44-1.37h-.02Z"/>
  <path class="st126" d="M111.81,72.57c1.65-.54,7.53,1.63,8.28,3.02l.36,2.14c4.18-.31,7.76,0,11.36,2.44l.83-.31c.12-.32.24-.32.37,0,1.09-.15,1.7.09,1.83.73,2.06.04,3.53.42,4.75,2.19.12-.32.24-.32.37,0,.12-.28.24-.28.37,0,.57-.82.79-.61.73.36.56-.83.78-.61.73.36.38.43.91.62,1.46.73.11-.31.23-.31.37,0,1.31-.03,2.64-.02,1.1,1.09-.35.04-.74-.01-1.1,0-1.48-.14-2.94-.26-4.38-.36-.79.1-1.64.22-2.56.36-.69.34-1.49.29-2.19,0-1.93-.3-3.92-.33-5.85,0-1.51.44-2.97.56-4.38.36-.4.3-1.09.28-1.46,0l-1.1-.36c-.52-.12-1-.24-1.46-.36-.99-.69-1.73-1.8-2.21-3.32-2.36-.83-3.85-2.78-4.49-5.84-1.37-.58-4.35-2.92-1.7-3.24h-.03,0Z"/>
  <path class="st4" d="M69.43,52.88c-.39.27-.95.57-1.46.36-.1.32-.22.32-.37,0-.95-.19-1.43-.56-1.46-1.09l-1.25.05c-1.15-.96-2.32-1.22-3.5-.78-.27.59-.58-.25-.54-.22,1.01.97-.29,1.7-.92,1.68-.05.51-.53.91-1.44,1.21-1.55,6.4-3.12,12.77-4.72,19.1l-1.41,2.67c-3.06,2.89-1.99,7.11-.88,10.67.1.43.11.78-.32.99,1.03.46-.09,1.8-1.1.36-.02-.11,0-.25,0-.36-.42-.98-.87-1.9-1.72-2.85l.26-.79c-.37-.06-.56-.29-.77-.57-.57-.75.09-7.98.32-9.34.06-.38.49-.71.83-.9-.11-1.45,0-2.87.39-4.25,2.69-5.12,4.33-9.91,5.15-15.55.46-1.46,1.64-3.35,3.25-2.52-.64-1,.08-1.27,2.17-.79-.09-1.01.76-1.53,1.46-.73.64-.79,1.48-.39,2.1.31,2.12.57,4.3,1.28,6.16,2.5l-.22.84h-.01Z"/>
  <path class="st12" d="M153.1,29.54c.97,0,1.97-.08,3.01-.25-.45,1.05-.55,1.75-.3,2.1,3.83-.48,4.87,2.03.89,3.19-1.61.25-2.32.76-2.14,1.52.49.61,0,.97-1.46,1.09-.21,1.05-.76,1.18-1.46.36-.72.47-1.45.71-2.19.73-.5.7-.93.57-1.5-.03-3.25.09-6.54.03-9.85-.18l-.35-.53c-.68-.34-.69-.99-.02-1.95-.71-.53-.87-.91.02-1.33,4.32-1.28,9.01-3.03,13.65-3.67.1-.01.62-1,1.69-1.07v.02h.01Z"/>
  <path class="st98" d="M163.33,49.23c.68.66.57,1.58-.33,2.77-2.15,2.52-2.37,5.39-2.15,8.6l-.45,1.76c-2.34,3.54-4.42,7.13-6.94,10.58-.69,1.38-1.55,2.35-2.56,2.92-.18-.06-.35-.13-.48-.24-.33-.29,1.02-5.83,1.93-6.42-.08-1.84-.13-3.38,1.5-4.53.72-3.21,2.05-5.87,4.01-7.97.46-3.91,2.58-8.54,4.82-11.82l1.01-.38c1.13.59.92,4.3-.37,4.74h0Z"/>
  <path class="st70" d="M47.5,44.49c1.12.22,1.73.58,1.83,1.09.25,2.16-.69,4.48-3.25,4.5-1.03,5.75-2.16,11.72-3.8,17.38l-1.75,3.24c.8,1.9.68,2.89-.34,2.96-.42.08-.91-.16-1.46-.73-.81-1.06-1.72-2.17-2.56-3.28v-.36c.35-.35.65-.61,1.09-.49.08-1.41.43-3.54,1.88-3.97l.06-2.64c.8-.32.71-.9.29-1.61l3.16-11.29c0-2.54.73-5.71,3.68-4.35l.44-.43c.22-.67.5-.67.73,0,0,0,0-.02,0-.02Z"/>
  <path class="st3" d="M166.99,25.53c.84.3,1.94.23,3.27-.2l.84.57c1.57-.84,2.64-.84,3.2,0,.31.1.3.23,0,.36-.84,1.89-3.93,3.25-5.85,3.28-.56,1.08-1.78,1.69-3.65,1.82-.66,1.42-3.51,2.28-5.12,2.55-1.22,1.29-3.36,2.9-5.12,2.19-1.35.39-.14-1.56,0-1.65.41-.27,1.42-.18,2.1-.45.4-.16,2.18-.82,1.93-1.35-.74-1.03-2.11-.29-3.06-.61-.5-.17-.84-1.78-2.78-1.04l2.92-1.09c-.07-.75-1.47-.03-2,0-.61.04-.52-.37-.55-.36,4.73-.97,9.24-2.77,13.89-4.01h-.02Z"/>
  <path class="st116" d="M181.24,29.9c-2.04,3.31-3.82,7.34-6.58,10.21l-.64.6c-.34,1.19-.89,1.94-1.67,2.24-.62,2.04-1.67,3.65-3.15,4.82,0,.8-.69,1.93-1.49,1.82-.18.88-1.27-.19-1.39-.63-.22-.84,2.13-5.5,3.58-5.45l-.29-1.43c1.98-3.8,4.07-7.96,4.8-12.4.43-.81.99-1.47,1.69-1.97-.85-.74-.15-1.46.73-.73.8-.02,1.57.38,2.33,1.18,1.1.38,1.78.96,2.05,1.74h.03,0Z"/>
  <path class="st71" d="M82.21,73.67l.81.1c2.45,3.45,5.03,6.86,7.73,10.23l.22.82c2.37.96,2.74,1.62,1.11,1.98-.53.28-1.27.26-1.83,0-2.1.4-4.3.64-6.58.73-.85.01-1.71-.01-2.56,0-.95.29-1.97.32-2.92,0-.48.27-.97.27-1.46,0l.39-.75,11.16-.7-1.37-1.1c-.77-1.57-2.03-2.68-3.8-3.33-.29-3.62-5.53-5.07-7.44-2.34.67,3.31-2.97,3.73-4.58,1.68-1.37.67-2.75-.7-1.31-1.49-.66-.57-.41-.82.73-.73.37-1.35,1.62-1.98,2.92-1.46.51-1.37,1.59-1.81,2.92-1.46-.14-.98.03-1.06.73-.36.73-.93,1.34-1.17,1.83-.73q.23.47,0,0c-.19-1.03.67-1.49,1.46-.73.72-.44,1.32-.57,1.83-.36,0,0,.01,0,.01,0Z"/>
  <path class="st13" d="M28.87,37.2c.51.91.14,1.03-1.1.36l.09.76c-2.4,3.99-3.54,8.58-3.69,13.21,1.11.96,1.46,1.9,1.03,2.81.96.25.94.46,0,.73-2.56-2.51-4.64-5.71-6.58-8.75.16-.57.42-.81.94-.56-.3-2.47.36-4.17,1.99-5.1-.05-1,.51-1.75,1.7-2.25-.5-.76-.46-1.77.11-3.02-.85.49-1.16.17-.73-.73,2.22.02,4.59,1.06,6.21,2.55h.03,0Z"/>
  <path class="st18" d="M67.6,53.24c-.77.56-1.62,1.05-2.56,1.46l.05.8c-4.17,6.24-5.23,12.61-6.41,19.82-1.55,2.96-2.79,6.52-2.92,9.88,0,.04.22.09.51.14.11-1.13,1.67-1.87,2.56-1.09.08-.34.2-.33.37,0,.08-.74.45-.71.73,0-1.54,1.81-3.72,3.02-6.52,3.62l-.05.39c.32.1.31.23,0,.36-.9.02-2.9,1.09-3.29-.73,1.67.73.88-.14,1.1-.36.13-.64.21-.88.73-.36l.19-3.45.54-.19c.29-3.7,2.11-6.85,4-9.93,1.02-2.92,1.59-6,1.72-9.23l.85-.53c.41-2.5,1.33-4.91,2.75-7.21.46-3.48,1.85-4.96,4.19-4.46.43.27,1.26.19,1.46,1.09,0,0,0-.02,0-.02Z"/>
  <path class="st113" d="M32.52,38.66c.24,2.03-.04,4.19-.62,6.27-.98,3.47-2.17,7.61-4.13,10.51,1.08.52.92,2.5-.37,2.55-.76-1.08-1.39-1.51-2.19-2.92-.08-.14.08-.58,0-.73-.15-1.15.47-2.24,1.88-3.29-.67-4.08-.09-7.88,1.09-11.73l-.42-1.76c.25-.11.9.16,1.1-.36,1.32-.21,2.78.46,3.65,1.46h.01Z"/>
  <path class="st54" d="M176.12,27.72c-1.52,2.03-1.01,4.48-2.28,7.02s-.99,2.1-1.81,4.75c-.22.7-1.35,1.2-1.61,2.08s.37,1.58.2,2.34c-.15.63-1.02.2-1.44.73-.48.6-2.24,3.75-2.13,4.38.08.44.65.54.67.58.12.35.12.71,0,1.09-.15.22-.22.5-.37.73-.94.13-2.04-1.68-2.19-2.55l-.63-.83c1.99-5.2,4.3-10.26,6.94-15.17-.7-2.37-.09-3.69,1.83-3.98,1.1-1.45,2.04-1.84,2.82-1.17Z"/>
  <path class="st193" d="M30.69,62.36c.03-1.81.14-4.27,2.1-5.21-1.55-2.54-.8-4.99,2.26-7.33l.21-2.26c.97-2.22,1.47-4.11,1.22-6.46.55-.73,4.1.31,1.52,1.56,2.97.4,1.18,3.4.13,4.96-1.4,4.84-2.73,9.59-3.98,14.24l-.53.12c.42.47.43.78.03,1.19,1.08,1.33.54,3.23-1.13,1.73-.63-.85-1.21-1.71-1.83-2.55h0Z"/>
  <path class="st66" d="M165.16,48.87c.99.17,1.92,1.62,2.19,2.55-2.34,3.6-4.56,7.33-6.94,10.94-.54-1.73-.36-5.63.08-7.4.41-1.65,2.32-3.16,2.85-5.73.22-.99,1.38-1.42,1.83-.36h-.01Z"/>
  <path class="st56" d="M36.91,40.12c.35.14.9.49,1.46.73,1.06-.08,2.4.57,2.92,1.46.19.08.35.17.41.31.09.23-3,1.2-3.7.06,0-.02-.4.02-.36-.18l1.09-.91-1.82-.37c.97,2.69-.19,4.2-.94,6.54-.24.76-.02,1.63-.24,2.32-.38,1.25-3.03,2.37-3.43,3.52-.62,1.82,1.25,2.02,1.22,3.43-.03,1.23-1.22.83-1.71,1.53-.59.84-.37,2.82-1.12,3.81-.32-.43-.52-.8-.73-1.09-.23-1.88-.33-2.82,1.12-4.35-.68-2.99-.26-4.62,1.98-6.77-.12-2.07.54-4.09,2-6.06l-.35-.69c-.92-.12-1.08-1.06-.5-2.84-.72-.36-.66-.96.13-1.17.76-.53,1.85.22,2.56.73h0Z"/>
  <path class="st155" d="M34.71,43.4s.55.13.69.61c.27.99-1.43,3.14-1.72,4.42-.16.72.2,1.33.07,1.93-.16.76-1.99,1.77-2.27,3.54-.16,1.03.51,2.01.3,3.17-.16.87-1.12,1.28-1.31,2-.23.86.84,1.69-.51,2.21-.75-1.03-1.69-2.05-2.56-3.28.43-.77.2-1.86.37-2.55,1.58-1.9,2.55-4.21,2.89-6.64l1.63-2.1c.03-1.5.84-2.6,2.43-3.3h0Z"/>
  <path class="st44" d="M22.65,34.64c.17.2.69.53.73.73l-.2,1.99c-2.85,1.09-4.26,4.26-3.55,7.18-.06.95-.4,1.59-1.36,1.04l-1.83-2.19c-.12-.12-.25-.24-.37-.36-.28-.39-.28-.63,0-.73-.72-1.04.14-3.66,1.46-3.65.26-.94.78-1.85,1.56-2.73-2.26-1.84-2.42-2.88-.46-3.1.93-.52,1.99-.27,2.4.7.78.11,1.51.31,1.62,1.13h0Z"/>
  <path class="st58" d="M47.14,68.2c.95,1.19.23,4.18-.37,5.47.53,2.22.72,6.55-1.83,7.66-.92-1.2-1.72-2.55-2.56-3.65-.36-.6-.36-.97,0-1.09-.36-1.51.41-2.13,2.33-1.85l.21-1.54c-1.64-1.35-.19-5.77,1.48-6.45.74-.74.98-.25.73,1.46h.01Z"/>
  <path class="st199" d="M39.1,56.16l.65.48-.64,3.27c1.21.73.93,2.66-.41,2.98.34,1.42.07,2.48-.81,3.17-.15,1.76-.72,2.84-1.71,3.23v.36c-.36-.49-.73-.97-1.1-1.46-.38-.53-.38-.83-.02-.9-1.74-1.58-1.23-4.38.35-5.83l.78-2.9c.65-1.9,1.63-2.7,2.91-2.4Z"/>
  <path class="st6" d="M137.76,37.56c2.17.24,3.82.36,6.05.38,1.18,0,3.89-.51,4.67-.39.28.04.23,1.02.97.75.35.2.22.44-.37.73-.11,1.11-.82,1.28-1.46.36-.52.54-.76.54-.73,0-6.62,0-13.27-.12-19.95-.38l-1.24-.71c-.32-.1-.31-.23,0-.36.49-.08,1.57-.52,2.19-.73l3.85-.44c1.71-.73,5.16-1.12,6.02.8h0Z"/>
  <path class="st14" d="M10.23,28.45c2.79-.35,3.31.74,3.5.74.4,0,.93-.46,1.4-.4.23.03.21.63.28.67.33.19,1.63-1.03,1.4.45l.14.67,3.3.6c1.12.26,2.27.67,1.67,2.01,3.92,1.56,7.79,3.47,11.69,5.11.42.46.17.58-.73.36-.12.32-.24.32-.37,0-1.21-.5-2.45-.96-3.65-1.46-2.05-.85-4.16-1.71-6.21-2.55-1.33-.55-2.65-1.26-4.02-1.82-1.64.47-3.91-.53-4.81-1.88-1.94-.36-3.5-1.07-4.69-2.13-1.04-1.12.51-1.29,1.1-.36h0Z"/>
  <path class="st106" d="M151.27,67.83c1.17-.41,1.33.85.95,1.82-.96.62-2.1,5.4-1.92,6.09.06.22.31.21.61.11.55-.79,1.92-2.04,2.56-2.92-2.01,4.25-5.19,7.92-7.5,12.03-.34.47-.81.31-1.27.37.23-.76-.58-.8-1.1-1.09l.22-.48c-1.11-2.27-.3-2.63,1.81-3.1-.02-2.04.75-3.92,2.32-5.65-.24-3.39.34-5.67,3.32-7.17h0Z"/>
  <path class="st100" d="M23.39,35.37c.09.43-.1,1.07.01,1.61s.74,1.07.68,1.44c-.11.73-1.55,1.15-1.71,1.42-.2.35.03.93-.16,1.27-.15.26-1.25.49-1.56,1.19-.47,1.05-.12,3.44-.55,4.74-.56-.81-1.38-.68-1.46-.73-.16-.11-.25-.27-.37-.36v-.36c1.31-.73.14-2.26.45-3.74.07-.37,1.55-3.41,1.78-3.7.73-.91,2.48-.51,2.89-2.77h0Z"/>
  <path class="st67" d="M108.16,19.69c.28.41.28.66,0,.73-1.58-1.75-3.21-3.5-4.74-5.3-1.06-1.25-1.66-3.36-3.3-2.36.51-1.93-.82-2.06-1.46-2.92-.99.43-2.09-.95-1.46-1.82-.61.12-.97-.36-1.1-1.46h-.73c-.13.99-.46.95-.73,0-.21.51-.58,1.12-1.1,1.82.31.11.55.35.73.73.31.43.32,1.4,0,1.82-2.91.76-1.7.08-2-.36-.66-.97-1.26.33-1.77.97-.14.17-.58.08-.61.12.69-.9,4.69-6.92,5.3-6.92,4.5,4.82,8.61,10.01,12.97,14.94h0Z"/>
  <path class="st189" d="M16.81,29.9c1.64-.54,3.49.04,5.22.39,1.39.28,3.16,1.06,4.65,1.07l-2.07,2.15-2.68-.33c-.23-.09-.77.06-1.09,0-.31-.4,1.49-.39.37-.91-1.52-.71-4.16-.83-5.85-1.28.16-.56.96-.92,1.46-1.09,0,0-.01,0-.01,0Z"/>
  <path class="st147" d="M64.68,39.39c.74-.58.73.7.89.69.76,0,.43-.35,1.67.04.14.55-.17.99-.73.73l-14.63,1.64c-2.45.82-4.89,1.13-7.29.91-.14.21-.39.21-.73,0-.32.4-.52.03-.73-.36-.35.57-.47.45-.37-.36,3.68-1.61,8.43-1.87,12.66-2l.86-.19.43-.51c1.48.15,2.92.08,4.32-.22.84.08,3.16.64,3.58.27.17-.14.03-.61.07-.64Z"/>
  <path class="st91" d="M125.7,37.93v.36l1.57.78c6.53.21,13.07.32,19.62.32.23-.03.5.04.73,0,.64.83.34,1.38-.73,1.09-.36.62-1.93,1.89-2.56,1.09-.57.12-.81,0-.73-.36-5.21-.6-10.51-.71-15.9-.35l-.54-.38c-.95-.95-1.49-1.8-2.19-2.55.24-.03.5.04.73,0Z"/>
  <path class="st5" d="M185.26,20.79c.08-.87,2.23-1.1,2.12-.19l-2.85,4.21c-.65,1.17-1.25,1.94-1.83,2.92-.58-.37-1.06-.98-1.46-1.82-1.5.59-1.78-1.95-.37-2.55-.62-.93-.18-1.39.73-.73.55-1.15,1.77-1.75,3.65-1.82v-.02h.01Z"/>
  <path class="st127" d="M180.87,23.34c-.48.54-.08,2.36.37,2.55.2,1.22.32,2.43.37,3.65-.08.14-.29.24-.37.36-1.47-.38-3.6-1.66-4.38-2.92-.76.13-1.01-.35-.73-1.46.79-1.6,2.99-2.57,4.75-2.19h0Z"/>
  <path class="st162" d="M47.5,73.67l.6.64-.59,8.32c.4.38.76.8,1.09,1.25.13.08,1.73,2.31,1.77,2.46.17.6-.31,1.01-.31,1.19-.78.18-.78-.45-1.11-.88-1.36-1.76-2.66-3.56-4-5.32-.02-.88.75-1.4,1.01-2.1.68-1.83.73-3.48.81-5.56.12-.97.45-.93.73,0Z"/>
  <path class="st114" d="M137.76,34.28v.49c1.55.55.14,1.61,0,2.79-1.08-.12-1.87-.6-2.77-.71-.71-.08-1.75.54-2.72-.02l.37.72-4.75-.36c3.28-1.08,6.56-1.94,9.87-2.92h0Z"/>
  <path class="st39" d="M180.87,21.52c.76.03,1.04.34.73,1.09-.44.21-.66.69-.73.73-1.55.76-3.19,1.41-4.75,2.19.29,1.05-1.29,1.62-1.83.73v-.36l-.21-1.1c-.64.06-1.03-.04-1.25-.72,1.62-.78,3.6-1.32,5.35-1.81,1.07-.3,1.84-.51,2.69-.74h0Z"/>
  <path class="st55" d="M121.68,85.34c.4.02.92-.11,1.1.36-.28.29-.81.28-1.1,0-1.2.14-1.93.27-2.19.36-.72.66-2.26.36-3.29.36-.3-.06-.42-.18-.37-.36l-1.83-.36c-.67-.12-.91-.36-.73-.73-1.45-1.9-1.93-3.72-1.46-5.47.08-.17.17-.32.29-.42,1.09-.9,3.53,4.59,3.85,5.5,1.91.2,3.82.45,5.72.75h.01Z"/>
  <path class="st94" d="M4.75,26.99c.92.13,1.65.37,2.19.73.32.1.31.23,0,.36-.64-.09-.35.22.86.95l-.13.51c.79-.06,1.16.06,1.1.36,2.03.36,3.05,2.2,1.1,3.28-.59.45-1.47-.2-1.83-.73-.47-.86-1.08-1.59-1.83-2.19-.91-1.27-1.44-1.75-2.19-3.28.1-.31.56-.28.73,0h0Z"/>
  <path class="st198" d="M172.83,24.07c.84-.08,1.72.05,2.56,0-.58.65-.29,1.47-1.1,1.82-1.22-.22-2.39.76-3.49.76-.68,0-.47-.73-.77-.78-.81-.14-3.21,1.25-3.05-.35,1.09-.29,2.17-.53,3.29-.73.85,0,1.46-.23,1.83-.73.06-.05.51.02.73,0h0Z"/>
  <path class="st53" d="M43.12,43.03c.65.51.77.88.37,1.09.7.55.44,1.52-.78,2.91.27,1.46-.05,2.37-1.38,3.06l-1.37,5.56-.85.51c-.58.37-1.27.9-1.62,1.49-.62,1.06-2.26,4.4-2.51,5.52-.2.89-.43,1.72-.25,2.65.22,1.17,1.71,1.11.36,2.38-.82-1.1-1.73-2.17-2.56-3.28,2.22.21.51-.84.42-1.7-.05-.54.57-.87.67-1.22,1.08-.95,1.61-2.43,1.6-4.46,1.55-5.04,3.2-9.97,4.95-14.78,1.36.27,2.09.24,2.22-.09.12-.32.24-.32.37,0,.14.1.24.28.37.36h0Z"/>
  <path class="st142" d="M70.89,87.52c.24.05.39.09.37.36-.1,0-1.02.34-1.83.36-2.42-.22-4.91-.44-7.31,0-.74.08-1.47.31-2.56.36-.52-.1-1.01-.22-1.46-.36-.76-.15.46-1.25.98-1.45,1.19-.48,8.51-.13,10.45-.01l1.37.74h-.01Z"/>
  <path class="st1" d="M174.66,40.12c-1.26,2.71-3.1,5.33-4.74,7.85-.64.98-1.75,2.03-2.2,2.73l-.36-.19c-.06-.28.38-.84.36-.9,1.77-1.22.37-1.9.37-2.37,0-.58,1.32-.28,1.71-.42,1.32-.49,2.05-4.26,1.93-5.59l1.46,1.09c.04-.59.32-1.53.71-1.95.33-.35.73-.21.75-.24h0Z"/>
  <path class="st97" d="M8.04,32.46c1.27.2,1.07-.15,1.83.73l.78.1c1.49,2.87,3.28,5.67,5.47,8.11l-.04.9c-.05.2.03.5,0,.73-2.96-3.16-5.46-6.75-8.04-10.21,0,0,0-.36,0-.36Z"/>
  <path class="st138" d="M181.24,25.89c.29.12,1.34-.13,1.46,0,.06.07.04,1.75,0,1.83-.54.4-.9.71-.73,1.09-.14.23-.23.5-.37.73-.15-1.49-2.13-2.73-.37-3.65h0Z"/>
  <path class="st124" d="M113.27,25.53v.36c-1.7-1.82-3.45-3.62-5.12-5.47v-.73c1.7,1.92,3.44,3.97,5.12,5.83h0Z"/>
  <path class="st129" d="M40.19,73.67c.83.05,1.44.66,1.83,1.82.62-.43.75-.07.37,1.09.05.34-.04.74,0,1.09-1.16-1.53-2.46-3.17-3.65-4.74.47.08,1.16.39,1.46.73h0Z"/>
  <path class="st25" d="M184.89,20.79c-.33-.94,1.62-1.03,2.05-1.06.39-.02,1.1-.3.87.5-.3,1.03-2.48,3.61-3.28,4.57.75-1.36,1.17-3.04,2.56-4.2-.62-.58-1.33-.04-1.83.18h-.37Z"/>
  <path class="st69" d="M184.89,20.79h.37c-1.1.5-2.48,1.25-3.65,1.82-.46-.28-.86-.49-.73-1.09,1.32-.36,2.9-1.23,4.02-.73h-.01Z"/>
  <path class="st74" d="M101.58,86.43c.32.1.31.23,0,.36-3.64.13-7.29.27-10.96.36-.25-.04-.4-.08-.37-.36.61-.02,1.22.02,1.83,0,.77-.79,1.87-.79,3.29,0,.81-1.08,2.46-1.04,3.29,0,.22-1.09,2.5-1.45,2.92-.36Z"/>
  <path class="st16" d="M103.77,86.43c.21-.7.52-.7.73,0,1.02-.84,1.63-1.1,2.56,0,.95-.29,1.97-.32,2.92,0-.3.58-.77.35-1.26.38-2.36.14-4.78-.1-7.14-.01v-.36c.46-.83,1.19-.83,2.19,0h0Z"/>
  <path class="st88" d="M6.94,27.72c.1,0,.47-.33.89-.3.88.06,2.82.16,2.4,1.03-.2.03-.83-.68-1.1.36.04.77-.54.75-.73,0-.44.65-1.32-.11-1.46-.73,0,0,0-.36,0-.36Z"/>
  <path class="st46" d="M90.62,87.16c-2.16.06-4.63.33-6.94.36l6.58-.73.37.36h-.01Z"/>
  <path class="st188" d="M76.73,87.52h1.46c.32.1.31.23,0,.36-2.31.02-4.64-.07-6.94,0l-.37-.36c1.97-.91,3.87-.9,5.85,0Z"/>
  <path class="st87" d="M69.43,88.25c-2.43.09-4.88-.06-7.31,0,.08,0,.56-.33,1.24-.39,1.72-.15,4.44-.14,6.07.39Z"/>
  <path class="st161" d="M89.89,11.67c-.24.35-.29,1.47-.74,1.91l-3.64,3.92c1.43-1.88,2.91-3.91,4.38-5.83Z"/>
  <path class="st186" d="M54.81,88.25c.9-.58,2.38-.55,3.29,0,.48,0,1.21-.18,1.46.36-2.06.1-4.15-.05-6.21,0v-.36c.07-.32.19-.31.37,0,.41-.4.79-.49,1.1,0h0Z"/>
  <path class="st190" d="M115.83,86.07c.17.02.33.19.37.36-2.07.01-4.15,0-6.21,0-.3-.1-.3-.22,0-.36.07-.33.19-.31.37,0,1.77-.33,3.74-.4,5.48,0h-.01Z"/>
  <path class="st15" d="M115.83,28.45c-.81-.87-1.73-1.66-2.56-2.55v-.36c.77.86,2.41,1.57,2.56,2.92h0Z"/>
  <path class="st135" d="M134.1,85.34c.32.1.31.23,0,.36-1.7,0-3.41-.02-5.12,0-.32-.1-.31-.23,0-.36,1.68-.34,3.43-.31,5.12,0Z"/>
  <path class="st177" d="M128.62,85.34h.37v.36l-2.56.36c-.73.02-1.46,0-2.19,0-.32-.1-.31-.23,0-.36,1.5-.07,2.83-.32,4.38-.36Z"/>
  <path class="st192" d="M67.96,40.12c-.42.53-.49,1.09-.73,1.46.27.96.22,1.01-.73.73-.1.32-.23.31-.37,0-.97-.05-.88-.35,0-.73-.64-.38-.33-.52.37-.73.18-.34.35-.6.73-.73.19.06.5-.04.73,0Z"/>
  <path class="st180" d="M136.66,85.34c.71-.26,1.49-.34,2.19,0-1.22.67-3.25.36-4.75.36v-.36h.37c.73-.01,1.46,0,2.19,0Z"/>
  <path class="st31" d="M18.27,45.59v.36c-.85-.7-1.61-1.38-1.83-2.55.62.64,1.81,1.05,1.83,2.19Z"/>
  <path class="st19" d="M6.21,30.27c1.07.24,1.59,1.16,1.83,2.19v.36c-.64-.85-1.24-1.73-1.83-2.55Z"/>
  <path class="st172" d="M143.6,85.34c-1.45.06-2.93-.02-4.38,0-.32-.1-.31-.23,0-.36,1.37-.02,3.31-.29,4.38.36Z"/>
  <path class="st72" d="M5.48,26.99c.49.01.98-.02,1.46,0v.73c-.78-.05-1.63-.13-2.19-.73.21-.27.46-.18.73,0Z"/>
  <path class="st110" d="M121.68,85.7c.32.1.31.23,0,.36-.73-.01-1.47.03-2.19,0-.36-.02-.73.02-1.09,0v-.36c1.09-.02,2.19.02,3.29,0h-.01Z"/>
  <path class="st147" d="M61.75,39.02c.97.09,2.1-.45,1.83.73-.67-.05-1.44-.49-2.2-.37.05-.16.37-.3.37-.36Z"/>
  <path class="st134" d="M81.12,87.52c-.61.65-2.01.36-2.92.36v-.36c.97,0,1.95.01,2.92,0Z"/>
  <path class="st136" d="M139.22,84.97v.36h-2.56c.5-.64,1.76-.35,2.56-.36Z"/>
  <path class="st99" d="M122.77,85.7c.49-.02.98.02,1.46,0v.36c-.85.01-1.71.01-2.56,0v-.36c.36,0,.73.02,1.1,0Z"/>
  <path class="st126" d="M128.99,85.7c-.44.66-1.76.34-2.56.36.5-.63,1.76-.36,2.56-.36Z"/>
  <path class="st89" d="M172.1,24.07s.17.61-.25.74c-.46.13-1.11-.09-1.58,0l1.83-.73h0Z"/>
  <path class="st127" d="M182.7,27.72c-.28.47-.55.8-.73,1.09l-.36-.18c.08-.88,1.05-.85,1.09-.92h0Z"/>
  <path class="st35" d="M5.48,26.99h-1.46s-.43.05-.37-.36c.57.04,1.51-.24,1.83.36Z"/>
  <path class="st0" d="M96.1,6.56c.19.69.44,1.1,1.1,1.46.6.7.91,1.09,1.46,1.82l.02,6.76c-.2,5.79-.23,11.6-.02,17.67.27.77.63,2.19-.37,2.19-.5-2.36-.74-4.79-.73-7.29-.39-.29-.41-1.19,0-1.46l-.37-1.82c-.28-.39-.21-1.03,0-1.46-.42-.24-.54-.73-.37-1.46-.31-.48-.31-1.09,0-1.82l-.49-.17c.51-.23.33-.83.12-1.29-.35-.54-.21-1.23,0-1.82l-.49-.23c.49-.42.32-1.07.12-1.6-.3-1.04-.42-2.14-.37-3.28-.39-1.26-.51-2.72-.37-4.38-.55-.25-.53-1.46,0-1.82.31-.33-.5-1.44.73,0,0,0,.03,0,.03,0Z"/>
  <path class="st153" d="M126.43,41.57c.3.18.59.48.49.79-.2.6-9.01,5.17-9.52,4.99-.17-.06-.33-.18-.47-.31l-1.42,1.42c-4.2,1.94-8.23,4.15-12.1,6.61-.3.81-1.29,1.22-1.83.36-.97-1.33.81-2.68,1.83-1.46.63-.26.19-1.19.41-1.42.13-.14.97.02,1.4-.23s.69-.83,1.15-1.06c1.02-.51,2.72-.79,3.46-1.29.82-.56.87-1.79,1.25-2.04.49-.32,1.52-.09,2.22-.34,1.99-.7,4.54-2.86,6.56-3.66,1.48-.59,3.38-.45,4.46-.92.64-.28.24-.82,2.11-1.45h0Z"/>
  <path class="st82" d="M98.66,34.28c1.16,1.26.55,3.06.74,4.55.32,2.58,1.05,5.14,1.41,7.71.23,1.58,0,4.29.39,5.74.12.44,2.49.48,2.21,1.69-.83.34-1.21-.19-1.83,1.46.15.96.04.95-.73.36-.16-.67-.28-1.4-.37-2.19-.73.18-.85-.18-.37-1.09-.26-.26-.26-.62,0-1.09-.87-.08-1.07-.57-.18-.72l-.18-1.47c-.28-.39-.27-1.06,0-1.46-.27-.05-.25-.18,0-.36l-.37-1.82c-.7-2.88-1.27-6.19-1.1-9.12,0-.16.4-1.27.37-2.19h.01Z"/>
  <path class="st60" d="M128.25,41.94c.61.17.96.32.37.73.39.65-.56,1.18-1.1.73-2.72,1.55-5.57,2.94-8.55,4.18-.85,1.04-1.79,1.6-3.14,1.29-.47-.37-.1-.98,1.1-1.82,2.7-1.38,3.81-1.5,6.5-3.26.92-.6,2.46-.25,3.01-2.21.23-.08,1.04-.36,1.1-.36.09-.33.21-.32.37,0,.82-.04.89.08.37.73h-.03Z"/>
  <path class="st156" d="M143.6,41.21c0,.19,0,.34-.07.38-.66.38-13.27,0-15.24-.07-.14,0-.27-.14-.4-.31-.12,0-.25-.02-.37,0-.14-.2-.22-.58-.37-.73,4.62.35,9.9-.47,14.43,0,1.02.11,1.21.3,2.01.73h.01Z"/>
  <path class="st82" d="M94.64,6.56l.36.11c.07,1.85-.05,3.63-.36,5.36.29,1.61.29,3.31,0,5.11.32.07.31.19,0,.36-.16,1.74-.28,3.44-.37,5.11.31,1.69.3,3.41,0,5.11.55.34.54.75,0,1.09.32,1.68.27,3.42,0,5.11-.39,1.89-.35,3.63.12,5.23l-.49.24c.28,1.96.28,3.9,0,5.83-.17,1.82-.29,3.64-.37,5.47-.14,1-.27,1.97-.37,2.92-.99.43-1.52-.8-.73-1.46.82-4.05-.05-7.87-.01-11.87s1.35-8.54.72-12.36c-.75-4.55-2.37-7.96-1.81-13.16.31-2.83,2.04-1.4,2.76-2.35.29-.39.12-1.02.16-1.47.05-.56.03-1.26,0-1.82-.28-.58-.52-.82-.73-.73-.37-1.27.47-.94.77-2.18.23-.04.28.35.33.36h.02Z"/>
  <path class="st160" d="M67.23,41.57c-.21,1.17.59.62,1.27.72,1.15.17,2.32.3,3.45.58l20.48,9.28.73,1.46c.28.64.31,3.29-.1,3.41-1.33.39-1.04-1.22-.26-1.95-6.57-2.89-13.06-6-19.48-9.35l-6.72-2.51-.11-.9c.06-.38.63-.57.73-.73h.01Z"/>
  <path class="st141" d="M38.37,40.84c.79-.91,1.96.45,2.82.65.41.1,2.87.46,3.18.45.24,0,.18-.65.65-.85,2.48-1.08,8.31-.57,11.25-.61-.62.65-1.71.27-2.64.46-3.19.64-7.62,1.52-10.88,1.73h-.37c-.34.48-1.07.2-1.1-.36-.94-.52-1.94-1.04-2.92-1.46h0Z"/>
  <path class="st174" d="M61.02,39.75c-.76,1.24-3.32.71-4.75.73.24-.25.17-1.01.61-1.11.59-.14,3.19.3,4.14.38Z"/>
  <path class="st34" d="M33.62,38.29c1.11.46,2.58.54,3.29,1.82-.64-.26-1.78-.41-2.56-.73-.73.86-1.45.38-1.46-.73l.73-.36Z"/>
  <rect class="st189" x="25.58" y="33.19" width="1.09" height=".73"/>
  <path class="st133" d="M147.26,40.84c1.08-2.14,1.95,1.3,1.46,2.55l.31.73c-1.44,2.18-2.52,4.49-3.23,6.93l-.74.37c-.61,1.6-1.48,3.19-2.59,4.77-2.12,7.2-5.08,13.86-8.86,19.99-.03,1.16-.02,2.24,0,3.25,1.14.57.51.87-.62.44-.1-.04-.26.04-.37,0-1.11.49-2.74-.47-3.29-1.46.34-.27.34-.47-.05-.58-1.22-1.51,5.24-12.46,6.4-14.04l1.39-5.44c2.77-4.49,4.86-9.2,6.27-14.13.32-1,.89-1.51,1.71-1.55-.6-.89,1.37-1.9,2.19-1.82h.02,0Z"/>
  <path class="st103" d="M154.93,43.4l.51.63c-.73,2.88-1.59,5-3.74,7.03-1.1,4.58-3.01,8.64-5.75,12.17-.06,1.96-.74,3.55-2.04,4.77-.36,1.85-1.07,3.38-2.13,4.57-1.89,3.02-2.19,6.71-2.19,10.21-1.6-.64-3.18-1.55-4.75-2.19-.07-.45.18-.45.73,0,1.1-1.3,1.27-1.63,1.13-3.59.89-2.49,1.92-4.94,3.11-7.34l.88-.38c0-2.85,1.43-7.2,3.67-9.02-.33-2.24.34-3.84,1.98-4.82,1.61-2.96,2.88-6.11,4.09-9.25l.85-.25c.32-.84.73-1.62,1.46-2.19-.47-.49-.25-.72.37-.36.26-1.12,1.46-1.01,1.83,0h0Z"/>
  <path class="st22" d="M154.93,57.26c1.03,1.2.46,4.95-1.17,5.64-.26,1.66-.81,3.25-1.66,4.79l-.83.15c-.7,2.15-.77,1.14-1.83,2.36-1.38,1.59-.3,3.45-.8,5.04-.24.76-2,2.85-2.06,3.03-.57,1.67.92,3.56-2.61,3.42-.19.89,1.72,3-.36,2.55-.09-.05-.27.05-.37,0-.55-.09-1.09-.29-1.46-.73-.3-.12-.55-.29-.73-.36-.59-.44.42-2.08,1.1-1.46l.45-.25c.04-3.67,1.12-5.56,3.25-5.67.34-5.44,2.92-9.55,5.84-14.21.62-2.11,4.9-13.5,5.92-14.27.17-.13.39-.19.62-.24l.75.63c-.94,3.22-2.34,6.68-4.04,9.58h0Z"/>
  <path class="st7" d="M161.87,33.92c2.56.08.78,4.22-.93,5.13-1.12,3.93-3.21,8.59-5.2,12.28l-1.18.83c-2.29,5.39-4.82,10.68-7.58,15.88-1.27,1.49-1.94,2.86-1.98,4.85-2.2,1.21-2.99,4.76-3.01,7.21-.11,1.02-.76,2.56-1.68,2.7-.11-.04-.26.04-.37,0-.78-3.01-.13-8.37,2.56-10.21.37-2.1,1.15-4.31,2.67-5.9,3.73-7.72,7.47-15.73,11.1-23.61,1.02-2.21,1.74-4.17,2.18-6.44.3-.68,1.56-2.67,2.32-2.34-.22-.69.8-1.09,1.1-.36v-.02h0Z"/>
  <path class="st75" d="M104.87,68.56c1.43.66,3.01,1.51,4.75,2.55,1.03,2.15,2.47,4.12,4.3,5.92l1.61,3.19c1.71,1.44,3.27,3.03,4.69,4.75.48.03,1.2-.2,1.46.36-1.18-.05-5.67.24-6.23-.16-.28-.2-1.95-5.42-3.63-5.68-.73-.09-1.37-.62-1.9-1.61-1.79-1.27-3.27-2.51-4.12-4.59-2.19-.38-2.78-3.67-2.76-5.48.95-.68,1.65-.43,1.83.73v.02Z"/>
  <path class="st175" d="M142.14,81.69c-.07.13-1.07.64-1.1,1.46-.29-.12-.53-.28-.73-.36,1.43-1.75.81-3.72,1.18-5.57.05-.24,1.64-3.79,1.8-4.04.47-.72,1.14-.48,1.32-.68.21-.23.25-1.91.54-2.56.37-.84,1.26-1.18,1.65-2,2.11-4.37,2.83-7.42,5.57-11.94.69-1.13.7-3.04,2.18-3.84.11.23.2.45.24.69.07.42-2.37,6.92-2.83,8.08l-5.45,9.81c-.03,2.89-1.07,5-3.11,6.35-.29,1.51-.57,3.03-.83,4.55l-.43.06h0Z"/>
  <path class="st194" d="M110.35,70.75c2.25-.33,5.53.76,6.94,2.55.68-.97,3.03.39,2.92,1.46.67-.79,1.45-.73,1.46.36,1.99-.46,3.85.76,5.12,2.19,1.3-.41,2.09-.26,2.56,1.09,1.08.44,2.17,1,3.29,1.46.04,2.42-1.6.28-2.59-.15-.65-.28-2.63-1.12-3.15-1.23-1.44-.3-6.42.23-6.99-.13-.53-.33-.12-2.48-.79-3.05s-3.36-1.77-4.28-1.94c-1.8-.34-.81.54-3.02-.8-.85.82-2.29-.4-2.19-1.46-.35-.52-.11-.64.73-.36h-.01Z"/>
  <path class="st189" d="M111.81,72.57c-1.49,1.98,1.54,1.88,2.22,2.71s.78,3.92,1.98,4.96c.59.51,1.35.26,2,.55,1.43.65,1.4,3.02,2.2,4.18-2.3-.15-1.5-.86-2.95-2.35-1.28-1.31-.96-.5-2.22-2.52-1.4-2.23-2.33-3.63-3.96-5.54-.83-.98-2.22-1.51-1.47-3.44.67.36,1.46,1.02,2.19,1.46h0Z"/>
  <path class="st108" d="M141.77,72.57c.44-.51.68-.51.73,0-.17.33-2.04,4.75-2.1,5.01-.42,1.66.39,3.57-.45,5.2-.11-.04-.26.04-.37,0l-.77-1.63c.43-1.75.75-7.22,2.04-8.25.33-.27.55-.26.92-.34h0Z"/>
  <path class="st36" d="M134.47,85.34h-.37c-1.7.03-3.42-.04-5.12,0h-.37c1.48-.61,4.29-.62,5.85,0h0Z"/>
  <path class="st193" d="M145.43,52.88c.33.07.31.19,0,.36-.61,1.46-1.39,2.9-2.35,4.29-1.82,6.61-4.93,12.83-8.2,18.82,0,1.18-.15,2.23-.41,3.15,1.19-.28,1.57-.1,1.1,1.09-.22.04-.5-.03-.73,0-.58-.24-1.25-.5-1.83-.73,1.4.07.36-.28.22-.76-1.21-4.2.47-3.44,1.93-6.39,2.58-5.24,4.45-10.97,6.67-16.31.69-1.66,1.74-3.99,3.24-4.97,1.21-.25.86.63.37,1.46h0Z"/>
  <path class="st47" d="M143.24,84.24c-.66.05-1.26-.05-1.46-.73.81.33.97.49,1.46.73Z"/>
  <path class="st23" d="M55.91,48.14c1.54-.44,3.41.28,4.02,1.82-.81.22-1.48.62-2.56.37l2.92.54c-1.19,1.15-2.24-.43-3.8.59-1.89,1.23-2,6.59-2.58,8.73-.81,3-3.25,6.78-4.05,9.45-.39,1.31.07,2.65-.17,3.78-.06.3-.75.25-.94.94-.42,1.58-.97,4.81-.84,6.38.08,1,.51,2.13.68,3.14-.16-.1-.83.06-1.3-.33-1.22-1,.09-2.32.21-3.49.21-2-.27-4.43,0-6.39-.34-.9-.35-1.98-.02-3.22,1.86-7.36,4.18-14.55,6.96-21.58-.81-.31-.49-1.17.37-1.09.44-.8.96-.53,1.1.36h0Z"/>
  <path class="st45" d="M67.6,53.24c.11-.03.25.03.37,0,.51-.46.7-.26.37.36-.63.87-.92,2-.88,3.39-1.39,3.65-2.5,7.42-3.34,11.34l-.9.59c-.99,1.15-1.55,2.6-1.66,4.35-1.53,3.25-2.78,6.63-1.62,10.25l-.74.72c-.13.01-.28-.03-.37,0l-.79.14c-.54-.72-.81-1.02-1.77-.87.15-3.12,1.07-6.2,2.76-9.22.2-3.82,1.35-7.12,3.43-9.89-.13-3.18-.12-5.21,2.23-7.72l.35-1.98c.18-.23.09-.99.73-1.3.59-.29,1.08.05,1.83-.16h0Z"/>
  <path class="st132" d="M59.93,52.88c.65.13.81.77.47,1.9-2.58,5.5-4.34,11.4-5.29,17.7-.6,2.03-1.18,3.99-2.82,5.34-.18,3.1-.31,6.22-.39,9.34-.23.27-.67.3-.73.36.19-1.89-1.17-2.77-1.43-4.59-.19-1.37-.19-4.08.56-5.23s2.35-3.51,2.88-4.76c1.34-3.17,2.26-9.17,3.08-12.31.58-2.22,1.12-4.52,1.55-6.77.38-1.06,1.81-.76,2.13-.98h-.01Z"/>
  <path class="st104" d="M61.39,51.42c.53-.47.73-.26.37.36.08,2.5-1.28,5.42-2.46,7.83-1.23,7.07-3.21,13.89-5.95,20.45l-.73,3.45c-.29,1.08-.16,2.99-.73,3.65-.2-2.37-.92-7.46-.29-9.59.28-.95,1.49-1.05,1.87-1.81,1.81-3.64,3-12.06,4.06-16.34.49-2,3.04-3.98,2.4-6.54.03-.02-.1-.46.11-.63.54-.46,1.4.58.63-1.19l.73.36h-.01Z"/>
  <path class="st102" d="M66.14,52.15c-3.57,1.13-2.44,2-3.4,4.45-1.09,2.78-2.89,4.26-3.55,7.22-.95-.68-.98-1.94-.08-3.77,1.32-2.62,2.48-5.31,2.64-8.26-.13-.11-.23-.26-.37-.36.43-2.29,3.56-.02,4.75.73h.01Z"/>
  <path class="st166" d="M62.85,48.14c.67-.48.98-.25,1.07.5,3.5.94,7.49,2.4,10.26,4.6,1.91.6,3.9,1.23,5.26,2.79l-.14.86-.29.37c-2.99-1.56-6.06-2.9-9.21-4.02-.35.1-.47-.02-.37-.36-.4-.31-.53-.88-1.37-1.37-.69-.4-6.32-2.35-6.67-2.28-1.06-.58-.18-1.45.73-1.09.22-.34.46-.34.73,0Z"/>
  <path class="st52" d="M62.48,47.41c.4.28.13.74-.37.73-.23.34-.64.62-.73,1.09-.23.05-.85.56-1.46.73-1.31-.65-2.66-1.29-4.02-1.82-.71-1.7,2.72-1.27,3.95-.83,1.34-.68,2.22-.65,2.63.1Z"/>
  <path class="st102" d="M69.43,52.88c.13.1.23.26.37.36,1.78.43,3.49,1.15,5.08,2.06l.04.49c-.11.27-.23.26-.37,0,.02.77-.53.74-.73,0-1.13.56-2.95-.24-3.29-1.46-.96-.05-1.69-.29-2.19-.73l-.37-.36c.09-.02.44-1.07,1.46-.36Z"/>
  <path class="st115" d="M153.1,37.2c3.53-1.85,1.65,3.89-.37,4.38.18,1.17-.34,2.13-1.55,2.88-1.46,2.93-3.07,5.76-4.81,8.51l-.96-.08c0-.63-.36-1.2-.37-1.46-.05-1.36.67-2.5,1.2-3.72.31-.71,2.07-4.15,2.45-4.3-.18-.68.29-1.04,1.39-1.08-.23-.88-.56-1.72-1.01-2.53,1.3-.51,1.91-1.01,1.81-1.5-.18-.33.06-.58.73-.73.47-.1,1.02-.33,1.46-.36h.03Z"/>
  <path class="st50" d="M159.68,33.92c.38.02.57.17.39.44-1.94,2.97-2.53,3.88-3.07,7.53-.47,1.26-1.16,1.76-2.06,1.51-.55.08-1.34-.12-1.83,0-.59.27-.71-.33-.37-1.82.74-2.37.86-1.39,1.38-2.27.27-.45-.08-1.44.44-1.93-.2-.32-1.08-.2-1.45-.17.4-.3,1.06-.91,1.46-1.09,1.59-.74,3.45-1.4,5.12-2.19h-.01Z"/>
  <path class="st42" d="M151.64,37.56c-.24.23-.46.55-.73.73.44.86-1.53,1.38-1.83.73.15-.21.22-.55.37-.73.77-.93,1.31-.55,2.19-.73Z"/>
  <path class="st120" d="M168.45,29.54l.54.25c3.32-2.01,2.54,2.06.86,3.74-.12,2.89-.53,4.12-3.01,5.73l-2.26,5.1-.88.14c-1.34,2.68-3.42,6.05-4.45,8.87-.47,1.3-.4,2.69-.74,3.65-.12.36-1.51,1.23-1.9,2.1-.74,1.67-1.36,4.35-2.13,5.9-.32.65-1.14.69-1.33,1.23-.3.87.16,2.17-.13,3.15-.22.75-1.73,1.61-2.04,3.07-.23,1.1-.03,2.27-.08,3.38-.54.77-.92,3.5-2.51,2.51-.39-.24-.31-2.05.06-2.42.19-.2.84-.18,1.18-.44,1.45-1.13.64-2.03,1-3.4.33-1.25,1.77-2.94.65-4.28.49-1.5,1.05-2.01,1.45-3.11.23-.64.33-2.6.43-2.69.17-.17.89.19,1.06-.26.3-.81.48-3.38.71-4.52,2.87-6.36,5.75-12.8,8.64-19.31,1.5-1.29,1.81-1.79,1.21-3.74l.39-1.39c.2-.61,0-.99-.37-1.46.94-1.02,2.53-1.26,3.65-1.82v.02h0Z"/>
  <path class="st21" d="M176.12,25.53c.87.13.57,1.21.73,1.46-.37.13-.52.44-.73.73-1.12.16-1.57,1.18-2.43,1.78-.73.52-2.01.09-1.86,1.63.04.38.45.75.47,1.13.04,1.07-1.35,3.42-1.89,4.53-1.36,2.81-3.42,6.21-4.6,9.27-.35.9-.58,1.84-.66,2.8-.39-.07-1.29.46-1.83.36.27-1.33.27-3.33.37-4.74.82-1.63,1.65-4.16,2.4-5.44.59-1.01,2.26-1.76,2.53-2.22.31-.53.21-2.24.44-3.22.34-1.45,1.08-1.42,1.32-1.99s.03-1.45.25-2.08l-2.37,1.09.18-1.1c1.89-.95,3.88-2.3,5.85-3.28.55-.28,1.28-.45,1.83-.73,0,0,0,.02,0,.02Z"/>
  <path class="st48" d="M51.52,46.31c.54-.49.76-.26.37.36.47,1.15-.34,2.28-2.41,3.39-2.26,7.17-4.4,14.46-6.42,21.88.05,1.57-.3,2.75-1.03,3.54-1.37.04-1.45-1.4-1.83-1.82.65-.91-.55-1.91-.38-3.08.08-.51,1.78-3.08,2.09-4.14,1.21-4.1,1.6-8.51,2.94-13.11.25-.85.25-3.55.8-3.94.5-.35,1.61.08,2.24-.68.51-.61.49-2.42,1.43-3.13.91-.68,1.93-.44,2.19.73h.01Z"/>
  <path class="st92" d="M44.58,43.4c1.52-.19,2.25.18,2.19,1.09,1.05,1.19-1.62.61-2.47.97-1.23.52-.6,2.55-.82,3.52-.91,3.98-2.88,8.82-3.55,13.3-.11.75,0,3.24-.11,3.35-.13.13-1.28-.17-1.66.35-.78,1.09,1.08,4.41-1.98,3.31.1-.96,1.77-3.68,1.82-3.9.14-.64-.14-3.26,0-3.4.19-.17,2.38.51,1.27-1.1-.15-.22-.85-.23-.93-.61-.06-.3.61-3.43.76-4.13.31-1.51,1.02-5.09,1.54-6.31.28-.66,1.15-.67,1.33-1.22.22-.66-.1-1.48.04-2.07.09-.37.75-.34.91-.61.05-.08.55-1.73.56-1.83.72-.26.84-.5.37-.73.23.03.52-.05.73,0v.02Z"/>
  <path class="st122" d="M66.5,40.84c-.12.24-.27.48-.37.73l-.4.5c-5.17.02-10.2.75-15.09,2.17-1.38-.19-2.43-.1-3.15.25-.23-.03-.51.04-.73,0-.65-.13-1.51-.93-2.19-1.09,7.13-1.77,14.6-2.29,21.92-2.55h.01Z"/>
  <path class="st145" d="M63.94,43.76c.48.49.26.7-.37.36-4.05.42-8.07.91-12.06,1.46.98.15.94.45,0,.73-.63-.28-1.59-.44-2.19-.73-.47-.23-1.69-.74-1.83-1.09,1.22-.23,2.78-.51,4.15-.69,3.4-.45,6.84-.87,10.24-1.19,1.55-.19,2.23.19,2.04,1.16h.02Z"/>
  <path class="st68" d="M164.79,31.36c2.62-.37,2.27.43.37,1.46-.1.33-.22.32-.37,0-.46,1.02-2.14,2.18-2.92,1.09-.33.14-.72.12-1.1.36-.73.6-1.09.48-1.1-.36,1.57-.74,3.34-2.3,5.12-2.55h0Z"/>
  <path class="st134" d="M69.79,79.5l.19,1.1c2.8-1.11,1.71.38,2.03.69.1.1,2.8.14,2.9.04.13-.13-.29-2.39.46-3.19.83-.88,4-1.07,5.13-.75.13.04,2.18,1.29,2.26,1.39.44.53.34,1.74.9,2.38.53.6,1.55.6,2.21,1.08.76.56,1.02,1.58,1.59,2.24s1.88,1.05,2.07,2.31l-12.79.73c-1.94.02-3.9,0-5.85,0-3.63,0-7.59-.23-11.16-.02-.68.04-1.37-.08-1.62.75-1.09-.02-2.19.02-3.29,0-.72-.26-.2-.51.37-.73.38-.61,1.17-.85,2.39-.72.85-1.12,2-2.1,3.46-2.93-.31-.09-.31-.21,0-.36.23-.99.52-1.14,1.46-.73.89-1.29,1.86-1.78,2.92-1.46.63-1.39,1.97-1.99,4.02-1.82.1-.32.22-.32.37,0,0,0-.02,0-.02,0Z"/>
  <path class="st123" d="M78.2,57.98c-.04-.45.32-.45,1.1,0,.26-.61.74-.61,1.46,0,.95-.3,1.05,0,.37.73-.38.44-.91.85-1.6,1.23.41,2.25-.26,3.79-1.37,5.71-.8,3.4-1.39,6.8-1.78,10.2-.95.45-1.96.99-2.92,1.46-2.41.34-2.64-2.25.16-2.14.47-.78.16-1.4-.95-1.85-.37-1.44-.33-3.01.13-4.7-.25-2.91.67-5.56,2.78-7.94.14-2.35,1.02-3.25,2.63-2.69h-.01Z"/>
  <path class="st140" d="M81.12,58.71c.45-1.41,4.14.82,4.38,1.82-3.46,1.67-4.97,4.89-4.55,9.65-.62,2.94-1.45,3.64-3.86,5.3-.25.11-.48.25-.73.36-1.29.12-.42-.3-.39-.93.13-2.93.54-6.38,1.38-9.2.32-1.09,1.36-2.41,1.51-3.27.29-1.62-1.24-3.85,2.26-3.74h0Z"/>
  <path class="st41" d="M76,56.53c.46-.67,3.66.6,3.29,1.46-.35,0-.79-.06-1.1,0-.72.12-1.4.09-2.05-.07l-.73,3.2c-1.95.76-2.33,2.66-2.61,4.65.05,3-.15,6.18-1.17,9.03-1.45,1.35-2.49,2.37-1.11,3.98-.25.12-.5.62-.73.73-.1.05-.27-.05-.37,0-1.98.97-3.73-1.58-2.13-2.88l.06-2.47c1.92-4.27,3.36-8.82,4.32-13.66.06-1.62,1.5-4.72,3.23-3.96-.12-.63.64-.24,1.1,0h0Z"/>
  <path class="st121" d="M85.5,60.54c.43-.74.92-.47.73.36-2.07,3.83-2.68,7.48-1.83,10.94v.77c-1.36.24-2.7.72-4.02,1.42-.73.27-1.02.54-1.46.73-.59.26-1.24.46-1.83.73.57-1.36,2.35-2.42,2.83-3.92.63-1.93.47-6.58,1.01-7.74.07-.14,1.7-2.46,1.81-2.57.37-.33.82-.36,1.28-.36l-1.09-1.09c.82.32,1.76.48,2.56.73h0Z"/>
  <path class="st78" d="M78.2,57.98c-2.28.43-1.81,2.66-2.57,4.09-.41.76-2.3,2.7-2.48,3.82.49,2.03-.55,4.85-.08,6.78.13.51,1.5.31,1.46,1.86-.04,1.75-1.31,1.36-2.55,1.49l1.46,1.28c-.96.47-1.97.98-2.92,1.46-.99-.3-1.6-.01-1.44-1.23.33-2.52,1.64-2.31,2.09-3.42.19-.47,1.06-4.37,1.16-5.04.27-1.85-.32-6.31,1.13-7.62.42-.38,1.37-.49,1.64-.92.72-1.17-.91-4.97,3.1-2.56h0Z"/>
  <path class="st184" d="M84.77,71.84c.31-.17,2.37-.36,2.48-.3-.03.73.03,1.46.2,2.18l6.98,9.1c.87.98,1.06,1.81.57,2.51-2.36.5-4.53.65-4.51-2.62-1.9-2.85-3.95-5.41-6.56-7.56-.21-1.12-.78-1.61-1.73-1.49-.59.19-1.38.2-1.83.36.83-.54,3.24-2,4.02-2.19.12-.32.24-.32.37,0h.01Z"/>
  <path class="st178" d="M82.21,73.67c.18-.06.54-.67.96-.7.99-.07,1.19,1.86,1.8,2.51.51.55,1.36.67,2,1.29.25.25,4.05,5.34,4.2,5.66.32.71.09,2.05.2,2.17.13.13,3.11.67,3.64.74.68-1.37,1.35.32.37,1.46-1.09.04-2.2-.04-3.29,0l.54-.73c-.45-.2-1.58.44-1.64.37-.04-.04-.02-.69-.22-1.05-1.63-3-4.35-5.21-6.41-8.57-.66-1.07-1.77-1.84-2.14-3.15h-.01Z"/>
  <path class="st134" d="M78.93,74.76l1.46,1.82c-1.2.07-1.25-.98-1.46-1.82Z"/>
  <path class="st11" d="M27.77,37.56c2.42.7.31,4.21.04,6.06-.37,2.52-.23,5.09-.04,7.61l-2.55,3.11c-.29-.55-.69-.99-1.12-1.91-.14-.3-.65-.26-.65-.44,0-.87.21-3.48.34-4.37.19-1.27,1.05-4.61,1.51-5.79.14-.37,1.83-3.75,1.98-3.92.17-.21.27-.25.51-.35,0,0-.02,0-.02,0Z"/>
  <path class="st130" d="M56.27,83.51c.99.58.99,1.25,0,1.82-.15.05-.42,1.16-1.46.18,1.59-1.25,1.06-3.67,1.56-5.73s1.92-5.03,2.37-7.11c.35-1.64.21-3.94.54-5.66.59-3.09,3.89-9.94,5.76-12.3,1.72,2.53-1.54,3.85-1.82,5.3s.31,3.35-.08,4.66c-.15.49-1.52,1.84-2.03,3.08-1.09,2.67-.76,6.03-1.97,8.25-1.44,2.64-2.77,4.12-2.87,7.53v-.02Z"/>
  <path class="st109" d="M59.19,63.82c-.86,3.9-.17,7.06-2.25,10.7s-3.12,4.46-4.33,8.99c-.06-.76,0-1.5.1-2.26.49-3.5,2.11-6.21,3.02-9.39,1-3.53,1.51-7.87,2.62-11.24.59-1.8,1.92-3.65,2.48-5.54.33-1.13-.15-2.51.91-3.29,1.78,1.55.66.61.09,2.1-.31.81-.32,1.79-.65,2.63-.94,2.4-2.45,4.39-2,7.3h.01Z"/>
  <path class="st144" d="M55.18,87.52c-.43.3-.91.55-1.46.73h-.37c-.47-.02-1.84.3-1.83-.36,2.95-.43,5.79-2.28,8.4-3.65-.23-.93.13-1.05,1.1-.36,0,1.27-1.53,1.31-2.17,2.02-.39.43-.43,1.25-.73,1.46-.58.4-2.13.1-2.94.17h0Z"/>
  <path class="st165" d="M34.35,39.39v.5c1.29.31-.1,2.25.37,3.52.4,1.57-1.19,1.26-1.4,1.51-.17.21-.02,1.22-.23,1.78-.46,1.25-1.57,1.94-1.83,2.55-.28.65-.07,1.43-.28,1.9-.66,1.44-1.63,4.3-3.19,4.29,1.03-4.31,3.09-8.61,3.98-12.99.26-1.27-.4-2.71.77-3.79.1.04.26-.04.37,0,.44.18.88.49,1.46.73,0,0-.02,0-.02,0Z"/>
  <path class="st185" d="M41.29,42.3c.37,0,.93.37,1.1.36,1.15,1.58-1.54.05-1.83.36.39,1.97-.9,3.22-1.48,4.9-1.02,2.94-2.81,7.19-3.48,10.02-.38,1.62.55,4.59-1.99,4.04.51-1.68.49-2.66,1.05-4.31,1.16-3.4,1.77-6.91,2.77-10.29.28-.94,1.37-1.91,1.49-2.86.09-.75-.61-1.26-.93-1.86,1.11-.45,2.03-.06,3.04-.06.34,0,.22-.3.24-.3h.02Z"/>
  <path class="st30" d="M8.77,29.9c.06-.18.13-.34.25-.44.24-.21,5.57,1.55,5.78,2.29-.68,1.09-.76,1.82-.23,2.19,2.27.46,4.49,2.47,2.97,4.72-.1.17-1.38,3.32-1.46,3.65-.56-.69-1.73-1.8-2.19-2.44-1.21-1.71-2.83-3.61-3.32-5.7-.06-.26-.51-.24-.67-.51-.09-.15.02-.4-.04-.46.2-1.62.85-2.65-1.1-3.28v-.02h0Z"/>
  <path class="st64" d="M9.13,28.81c3.23,1.08,6.35,2.72,9.5,4.01-1.6,1.85.48,1.66.76,2.04,1.48,2-1.31,2.88-1.86,3.79.1-.93-.43-2.49-1.07-3.12-1.15-1.11-4.51-.28-2.21-4.17-1.09-.59-2.31-.55-3.36-.84-.98-.28-1.38-.48-2.12-.62-.55-.11-.54.02-1.1-.36-.01-.47.31-.63.73-.73.2.06.54-.06.73,0Z"/>
  <path class="st65" d="M53.71,47.41c.19.07.36.16.44.3.64,1.03-2.84,2.94-3.72,3.19-.54,3.08-.98,6.2-1.33,9.36-1.21,1.8-1.93,3.92-2.16,6.36l-.54.13c-.44,1.61-1.89,3.9-1.46,5.59.07.28.72.23.75.48.02.13-.29,2.59-.39,2.69-.34.35-2.73-.82-2.92,1.1-.06-.4-.36-.97-.37-1.09-.23-5.63,4.06-16.35,5.95-21.96.34-1.02.31-2.4.66-3.28.29-.72,2.93-2.37,3.26-3.57.91-.63,1.65-.4,1.83.73v-.03Z"/>
  <path class="st61" d="M47.5,73.67h-.73c.08-1.97-.02-3.46.37-5.47-.19-2.5.3-5.86,1.92-7.91.15-1.94.5-3.36,1.68-4.92-.3-2.34,1.58-5.92,3.7-6.5,1.07,2.05-.72,3.36-1.29,5.1-1.13,3.48-.62,4.04-2.53,7.69-1.03,1.97-2.85,9.86-3.13,12.01h.01Z"/>
  <path class="st62" d="M54.44,47.41c.52-.46.7-.25.37.36-.25.29-.23.86-.37,1.09-.43.72-2.78,4.01-2.85,4.27-.21.74.03,1.61-.15,2.4-.22,1-1.46,1.89-1.67,2.71s.08,1.74-.08,2.4c-.09.38-.88.33-1.05.84-.36,1.07-1.25,5.33-1.52,6.7.06-.64-.06-1.27-.73-1.46.83-3.03.4-3.76,1.98-6.59,1.31-2.34-.03-6.77,1.38-9.57.41-.82,3.74-1.19,3.95-3.17.13-.96.36-.89.73,0v.02h0Z"/>
  <path class="st131" d="M146.89,39.39c-4.57.59-14.76.98-19.2.38-1.05-.14-1.5-.58-1.99-1.48,6.07.92,12.35,0,18.47.35.88.05,2.02.16,2.73.74h0Z"/>
  <path class="st187" d="M150.91,38.29c.87-.32,1.25,1.31,1.09,1.46-.08.08-1.65-.49-2.19,0-.3.92.58.59.71.99.94,2.82-.48,2.14-1.81,2.66-1-.38-.51-2.13-.79-2.51-.13-.17-.51,0-.67-.04-.62.23-.72.19-.37-.36.23-.17.48-.84.73-1.09.61-.1.91-.2,1.46-.36.65-.19,1.25-.34,1.83-.73v-.02h0Z"/>
  <path class="st181" d="M95.37,6.56c-.06.59.08,1.25,0,1.82.21,1.43.09,2.65-.37,3.65-.1.32-.23.31-.37,0v-5.47c.18.02.71.03.73,0,0,0,.01,0,.01,0Z"/>
  <path class="st181" d="M97.2,8.02l-1.09.36v-1.82c.42.49.73,1.03,1.09,1.46Z"/>
  <path class="st181" d="M94.27,9.12c-.98.17-.6-.29-.73-.73l.73-.36c.02.36-.02.73,0,1.09Z"/>
  <path class="st185" d="M43.85,43.4c.99.73,1.2.74-.37.73,0-.16-.43-.75-.37-1.09.22.15.53.22.73.36h0Z"/>
  <path class="st38" d="M143.6,41.21c.2.11.57.05.73.36-.03.64-.93,1.1-1.46.73-.77.27-1.82.61-2.63.66-1.42.1-9.78.02-10.76-.27-.47-.13-.91-.38-1.23-.76-.13-.22-.39-.39-.37-.73.14,0,.36-.28.59-.25l15.12.25h.01Z"/>
  <path class="st195" d="M146.89,40.48c.14.08.27.34.37.36-.99.44-1.49,1.11-2.19,1.82-1.13.31-1.83,1.17-2.1,2.58-.22,2.56-1.35,4.3-3.38,5.22l-1.3,2.83-.88.3c-.53.94-1.7.27-1.46-.73-.09-.65.04-1.38.37-2.19-.77-.64.25-2.08,1.12-2.44-.66-.56-.84-1.06-.75-1.93-.32-.1-.31-.23,0-.36,2-1.08,3.95-2.18,5.85-3.28-.21-.18-.09-.3.37-.36.5-.25.96-.47,1.46-.73.61-.32,2.01-.69,2.56-1.09h-.04,0Z"/>
  <path class="st170" d="M97.93,66.01c.41,0,.89.29.73.73.71,1.29,1.88,2.33,3.51,3.1,2.12,4.74,5.36,8.91,9.71,12.51l1.4,2.62c.22.26.52.46.73.73-1.19.06-2.41.18-3.65.36h-.37c-.39-.08-.64-.32-.73-.73-4.12-4.84-8.17-9.75-12.15-14.72l-1.37-.96-.83-.03c-.31-.8-.76-1.52-1.36-2.16-.51-.98,1.13-1.97,1.83-1.09,1.13-.58,1.98-.71,2.56-.36h0Z"/>
  <path class="st158" d="M100.48,66.74c.81-1,2.77-.12,2.56,1.09,1.08.83,1.28,3.61,1.79,4.24.36.45,1.1.36,1.4.61.27.23.99,1.92,1.56,2.53,1.56,1.67,2.89,1.61,4.02,4.3.72,1.73.92,3.68,1.46,5.47-2.95-3.44-7.45-7.37-9.86-10.76-.93-1.31-1.1-3.27-2.04-4.17-1.19-1.14-3.27-.59-2.72-3.31.37-.34.98-.34,1.83,0Z"/>
  <path class="st157" d="M114,85.7c.59.01,1.52-.22,1.83.36-1.67-.16-3.75-.01-5.48,0,.82-.64,2.53-.39,3.65-.36Z"/>
  <path class="st30" d="M6.94,28.08c.56.08,1.09.61,1.46.73.09.77.05.82-.73.73-.3-.2-1.56-1.4-1.46-1.46.24,0,.49-.04.73,0Z"/>
  <path class="st146" d="M87.7,70.38c1.11-.35,1.6-.16,2.48.53,3.82,2.98,7.43,7.86,9.79,12.03,1.43.7,2.78,1.59,4.03,2.66l-.23.83c-.73.01-1.46-.02-2.19,0-1.08.03-1.98.34-2.92.36-2.96-3.88-6.19-8.11-9.59-11.9l-1.77-1.49c.13-1.36-.47-2-1.79-1.92-.62-1.25,1.45-2.11,2.19-1.09h0Z"/>
  <path class="st37" d="M85.5,71.48c.88-.07,1.7-.11,2.56-.36l-.71,1.43c3.84,2.65,6.32,6.77,9.13,10.41.85,1.1,2.91,2.12,2.18,3.84-1.09.03-2.2-.04-3.29,0-.23-.83-1.13-.74-1.83-.73v-.36h1.83c.06-.41-.35-.34-.37-.36-1.48-2.92-1.89-2.96-3.65-5.3-.84-1.11-4.25-5.29-4.58-6.03-.38-.87.06-1.32.18-2.17-.7.07-1.53-.11-2.19,0-.83-.89.16-1.48.73-.36h.01Z"/>
  <path class="st171" d="M93.54,67.47c1.54-.31,1.72,1.41,2.19,2.19l.74.3c4.19,5.26,8.44,10.39,12.78,15.39.5.19.73-.36.73.73-.92.1-1.89.22-2.92.36-.85.01-1.71-.01-2.56,0-.2-.84-.82-1.5-1.85-1.98-1.94-4.15-5.13-8.3-8.84-11.07-1.43-1.04-1.6-2.22-1.66-3.84-1.06.39-1.82.31-2.27-.25-.66-1.29,2.9-2.83,3.65-1.82h0Z"/>
  <path class="st167" d="M89.89,69.29c.33-.1,2.47-.64,2.57-.56.82.67.34,2.3.69,2.85.83,1.32,4.19,3.52,4.8,4.44,1.62,2.43,3.62,4.78,5.05,7,.3.46.35,1.47.45,1.55.13.1,3.07.05,1.05,1.86h-.73l-1.35-1.45h-2.67l1.82-.73c-2.63.1-2.63-2.13-3.64-3.48-2.14-2.88-5.36-6.94-8.22-9.28-.6-.5-1.34-.74-2.02-1.1-.22-1.16,1.35-1.97,2.19-1.09h0Z"/>
  <path class="st63" d="M109.98,86.07c0,.12.03.3,0,.36-.97,0-1.95-.01-2.92,0,.61-.65,2.01-.36,2.92-.36Z"/>
  <path class="st142" d="M55.18,87.52l-.37.73h-1.1c.23-.78.8-.67,1.46-.73h0Z"/>
  <path class="st81" d="M66.5,42.3c1.85,1.36,4.18,1.53,6.46,2.49,6.29,2.63,12.59,6.92,18.87,9.27.49.18.94-.12.97-.08.08.11-.02.79,0,1.09-.11.95-.27,1.61-1.29,1.23-8.4-4.76-16.96-8.71-25.67-11.83l-.44-.71c-.39-.46-.23-.73.37-.73-.71-.61-.58-.85.37-.73h.37s-.01,0-.01,0Z"/>
  <path class="st17" d="M66.14,41.57c-.07.18.06.53,0,.73-.13.38-.21.45-.37.73-.39.29-.76.42-1.1.36.03.55-.41.94-.73.36-.58-.6-1.98-.43-2.76-.38-4.07.29-9.84,1.66-13.69,1.11-.57-1.43,2.25-.43,2.76-.51.39-.06.65-.72,1.15-.87,1.63-.5,4.48-.73,6.23-1.14,2.77-.65,5.68-.31,8.49-.39,0,0,.02,0,.02,0Z"/>
  <path class="st148" d="M96.47,17.87c-.28.83-.32,3.23,0,1.82.55.25.35.98.37,1.46l-.37,2.92c.37-.21.49-.03.37.36.31,2.12.66,4.62.37,6.93.7.43.86,2.25.37,2.92l-.29.96c-1.98-.83-1.1,4.33-.8,4.55,1.07-.27,1.68-.04,1.83.69.59,2.38.95,4.81,1.1,7.29.16.62.28,1.1.37,1.46.65.41.3,1.5.37,2.19-.15.43-.42,1.44,0,1.09.02.12.27.7.37,1.09v.73c-.36.86-.24,1.8-.03,2.69l-.34.23c-.8.21-1.04-.4-.73-1.82-1.09,1.41-3.87.92-5.48.36-.1-1.54-.22-3.12-.37-4.74v-.36c0-1.42-.06-3.05-.02-4.59,0-.32-.01-.83.38-.88l.19.45c.03-2.1.04-4.2-.19-6.28,0-1.73-.31-3.97.37-5.47.11,2.01.23,1.16.37-2.55.13-.3.25-.63.23-.97-.2-3.87-.15-8.12.09-12.07.02-.28.19-.55.41-.82.1-.32.23-.31.37,0,.21-.45.33-.94.37-1.46.53.53.34,1.18.37,1.82h-.05Z"/>
  <path class="st118" d="M98.29,36.47c.1,2.79.82,6.22,1.1,9.12l.37,1.82c.01.12,0,.24,0,.36-.1.32-.23.31-.37,0-.5-2.37-.83-4.89-1.1-7.29-1.3-1.48-1.73-4.52-.73-6.2-.08-1.04-.3-2.07-.37-2.92,0-.83.11-1.56.37-2.19.6,2.3.73,4.93.73,7.29h0Z"/>
  <path class="st111" d="M95.73,12.76c.25.84.13,1.33-.37,1.46-.1.32-.23.31-.37,0-.28-.64-.3-1.56,0-2.19.06-1.48.18-2.33.37-3.65.4,1.48.34,2.87.37,4.38Z"/>
  <path class="st183" d="M97.2,25.89l.37,1.82c.03.48-.03.98,0,1.46.06.93-.37,2.08-.37,2.19l-.37-6.93c.1-.32.23-.31.37,0,.05.48-.04.98,0,1.46Z"/>
  <path class="st10" d="M96.1,16.05c-.03.51.21,1.31-.37,1.46-.25-1.13-.38-2.23-.37-3.28,0-.46.37-1.06.37-1.46.6.84.42,2.24.37,3.28Z"/>
  <path class="st182" d="M96.47,19.69c-.02.36.02.73,0,1.09h-.36c.12-.89-.38-2.25.36-2.92.02.6.03,1.22,0,1.82h0Z"/>
  <path class="st191" d="M96.83,22.98c.13.71.01,1.08-.37,1.09-.14-.66-.17-2.47.37-2.92.02.6-.06,1.23,0,1.82h0Z"/>
  <path class="st26" d="M97.2,24.43h-.37c-.24,0-.32-.15-.37-.36l.37-1.09c.02.2.29.79.37,1.46h0Z"/>
  <path class="st26" d="M97.56,27.72c-.59-.31-.34-1.24-.37-1.82.01.19.32,1.04.37,1.82Z"/>
  <path class="st60" d="M116.93,47.04l-1.1,1.82-.21.64c-3.62,1.67-7.09,3.61-10.52,5.63l-.6-.07c-.55.34-.91.34-1.1,0,.18-1.38,1.19-1,1.95-1.51,1.88-1.25,5.03-3.59,7.08-4.25,2.58-.82,2.28-1.15,4.49-2.27h0Z"/>
  <path class="st77" d="M103.41,55.07c.36-.03.73.02,1.1,0-.61,1.13-2.03,2.37-3.29,2.55-.14.2-.26.08-.37-.36-.56.15-.59-.63-.37-1.09.03-.28.06-.43.37-.36.19-.13.52-.29.73-.36.59-.2,1.2-.31,1.83-.36,0,0,0-.02,0-.02Z"/>
  <path class="st128" d="M99.75,49.23c-.02.48.02.97,0,1.46h-.36v-2.92h.37c.03.47.02.98,0,1.46,0,0-.01,0-.01,0Z"/>
  <path class="st153" d="M100.85,55.8c-.13.09-.23.27-.37.36-.42-.49-.21-1.25,0-1.82v-.73c.16.65.66,1.29.37,2.19Z"/>
  <path class="st90" d="M100.12,52.51c-.02,1.79-.95-.15,0-1.09.03.35-.05.76,0,1.09Z"/>
  <path class="st148" d="M99.75,47.41s-.3.02-.36-.55c-.04-.44.03-.88,0-1.27.59.31.34,1.24.37,1.82h-.01Z"/>
  <path class="st81" d="M127.52,43.4c.15.17.26.33.22.45-.21.7-7.37,4.3-8.52,4.48-1.32,1.38-3.08,2.31-5.28,2.81-1.79,1.26-3.4,2.24-5.43,2.83v.5c-2,1.03-3.98,2.26-5.92,3.55-1.19,1.6-2,1.33-1.39-.4,1.09-.83,2.18-1.74,3.29-2.55,3.1-2.28,7.7-4.45,11.33-6.2,3.12-1.51,6.05-2.82,8.9-4.42.97-.55,1.31-1.24,2.79-1.05h0Z"/>
  <path class="st137" d="M142.87,42.3c-.14.07-.25.31-.37.36-1.01.91-2.67,1.77-4.02,1.82-1.53-.99-3.3-1.02-5.32-.08l-2.72-1.01c.35.48.17.66-.37.36-.1.3-.22.29-.37,0-.5.53-.71.3-.37-.36-.97.51-1.14.26-.73-.73-.15-.18-.23-.5-.37-.73l14.62.36h.02,0Z"/>
  <path class="st154" d="M129.35,43.4c.34.86-1.04,1.67-1.76,2.07-3.49,1.91-7.41,3.97-11,5.68-.2.09-.47.03-.76-.09l-3.83,2.3c-.7.97-2.88,1.84-3.48.62.38-1.29,1.56-.86,2.28-1.19,1.18-.55,2.24-1.77,3.23-2.23.89-.42,3.74-.95,4.27-1.41.34-.29.24-1.1.53-1.3.34-.24,2.77-.59,3.55-1.01,1.19-.64,4.24-2.61,5.14-3.44.3-.28.77-.47,1.1-.73.07.09.63.64.73.73h0Z"/>
  <path class="st196" d="M95.37,17.5c-.37,3.93-.31,7.82-.36,11.86,0,.62.23,1.62-.37,2-.1-.79-.22-1.64-.37-2.55v-1.09c.14-1.74.27-3.45.37-5.11-.37-1.66-.29-3.42,0-5.11v-.36c.01-.67.13-1.28.37-1.82.72-.09.85,1.67.37,2.19h-.01Z"/>
  <path class="st176" d="M93.91,39.39c.84,3.48.14,7.36.36,10.94-.64.09-.34-.83-.36-1.27-.05-1.27,0-2.56,0-3.83-.01-1.94,0-3.89,0-5.83h0Z"/>
  <path class="st33" d="M94.64,31.36c.03,2.55-.02,5.11,0,7.66-.64.09-.34-.83-.36-1.27-.05-1.27,0-2.56,0-3.83-.01-1.7,0-3.41,0-5.11.64.5.36,1.75.37,2.55,0,0-.01,0-.01,0Z"/>
  <path class="st149" d="M65.41,43.76c1.85-.38,9.8,3.65,11.95,4.67,4.55,2.14,9.09,4.55,13.63,6.82.78.39,1.44.86,1.82-.18.04.48-.03.98,0,1.46h.36c.02-.97-.02-1.95,0-2.92s-.3-2.31.37-2.92v.36c.32,1.81.29,3.65,0,5.47-.14.88-.26,1.73-.37,2.55-.45.45-.94.26-1.47-.56l-15.23-6.62-.1-.84c-3.72-1.01-7.18-2.46-10.38-4.37-1.28.36-1.96.11-2.04-.74-.95-.38.23-2.26,1.1-2.19.12-.32.24-.32.37,0h-.01Z"/>
  <path class="st148" d="M95,14.22c.29.32.43.9,0,1.09-.03.8-.36,1.62-.37,1.82v-5.11h.37c-.03.73.03,1.46,0,2.19h0Z"/>
  <path class="st148" d="M94.27,27.72v-5.11c.1-.32.23-.31.37,0,0,1.61.31,3.73-.37,5.11Z"/>
  <path class="st181" d="M94.64,22.61h-.37c0-1.61-.31-3.73.37-5.11-.05,1.69,0,3.41,0,5.11Z"/>
  <path class="st151" d="M145.06,42.67c-2.41,2.45-1.47,3.35-2.36,6.21-1.22,3.89-4.06,6.92-5.21,10.49-.43,1.35-.48,3.09-1.02,4.45-.83,2.1-3.05,4.64-4.1,6.84-.56,1.18-2.25,5.34-2.52,6.48-.16.66,1.66,1.48-.5,1.27-.86-.35-1.71-.75-2.56-1.09.05-.78.06-.79.73-.36.31-.8.43-1.63.36-2.47,1.08-5.68,3.88-10.94,7.02-15.72l1.6-4.85.88-.31c.34-.94,1.04-2.96,1.66-3.63s1.65-.65,2.15-1.5c.78-1.31,1.62-4.68,2.39-5.66.48-.61.88-.33,1.47-.15h.01Z"/>
  <path class="st57" d="M160.78,34.28c-1.78,1.16-1.75,3.81-2.37,5.47-2.86,7.62-6.88,14.4-10.16,21.6-1.93,4.24-3.72,7.32-5.74,11.22-.23.03-.51-.04-.73,0,.99-1.12.96-4.06,1.56-5.01.23-.36,1.44-.57,1.68-1.46.16-.62-.26-1.21-.2-1.69.33-2.41,2.06-2.97,3.01-4.58,1.63-2.75,2.22-7.83,3.65-9.85.42-.6,1.1-.68,1.55-1.37.95-1.44,1.22-3.94,1.9-5.21.25-.46,1.54-1.37,1.75-2.08,1.05-3.66-1.11-3.02,2.65-6.49.31-.29.31-.88.35-.91.18-.14.86.19,1.1.36h0Z"/>
  <path class="st101" d="M153.1,43.4c-.14.04-.25.3-.37.36-.73.57-1.13,1.34-1.46,2.19-.52,1.71-3.45,8.62-4.37,9.95-.35.51-1.35.68-1.67,1.37-.37.79.22,2.29-.25,3.37-.31.72-1.17.73-1.55,1.37-.72,1.21-2.34,5.77-2.75,7.28-1.07.41-1.33-.64-.73-1.46-.17-.24-.3-.46-.25-.64,1.46-4.84,3.32-9.67,5.73-13.95v-.36c2.58-2.31,2.99-6.48,5.58-9.01,1.1-1.07.9.35,1.72-2.29l.37,1.82Z"/>
  <path class="st40" d="M140.68,69.29c-.76,2.75-2.76,5.48-3.21,7.55-.43,1.94.86,3.18-1.9,3.75-.26-.42-.69-.83-1.1-1.09l.21-.8c-.53-1.07,3.95-10.52,4.78-11.02.1-.06.28.03.5.16l.73,1.46h0Z"/>
  <path class="st50" d="M151.27,45.95c.36-1.18.11-1.42,1.46-2.19l-1.46,2.19Z"/>
  <path class="st159" d="M164.79,32.82c.53,1,.23,2.13-.83,2.76-.42,3.36-2.86,7.73-4.68,10.82l-1.07.64c-.56,1.36-.93,2.81-1.51,4.15-.81,1.88-3.39,5.72-3.81,7.14-.78,2.67.18,1.83-1.58,4.63-1.44,2.28-3.3,5.58-4.04,8.36-.38,1.42-.18,3.73-.57,4.54-.64,1.32-1.99.09-2.74.88-1.02,1.07-.64,3.01-.98,4.52-.17.74,0,1.19-.84.43.88-1.67.49-2.83.9-4.39s1.75-1.73,2.15-2.96c.35-1.06.12-2.17.41-3.24.57-2.11,4.44-6.86,5.58-9.38,1.34-2.98,1.97-6.35,3.39-9.57,1.58-3.61,3.82-7.18,5.28-10.96.31-.81.14-1.69.45-2.45.52-1.28,3.9-1.55,1.59-4.82.98-.4,1.78-.54,2.92-1.09h-.02,0Z"/>
  <path class="st96" d="M165.16,32.82c-.05,1.2.91,2.49.58,3.65-.27.96-1.51,1.5-1.85,2.2-2.09,4.29-3.79,9.22-6.16,13.21-1.06,1.79-.46,4.33-2.8,5.37.57-2.8,2.07-4.6,2.9-7.13.33-1,.45-2.04.38-3.08,1.52-3.69,3.46-6.27,4.95-9.83.28-.68,0-1.43.17-1.94.06-.19,1.63-1.26,1.46-2.45.1-.05.27.05.37,0h0Z"/>
  <path class="st181" d="M117.29,55.8c2.34-1.34,4.76-2.59,7.26-3.76.65.06,2.19,3.29,1.14,3.76-.71,1.57-1.17,3.29-1.39,5.15-1.99.4-2.69,1.78-2.11,4.16l-.43,1.61c-2.17,1.3-4.41,4.06-3.85,6.49l-.62.09c-2.25-.92-4.67-1.64-6.94-2.55-1.93-.28-3.78-1.23-5.48-2.19-.58-.22-1.18-.49-1.83-.73-.89-.33-1.03-.8-2.56-1.09-1.16-.02-2.01-.38-2.56-1.09-.96.35-1.09.11-.37-.73.17-.69,1.7-1.41,2.56-1.46.09-.83.58-1.03,1.1-.36.05-.96,1.16-1.53,1.83-.73,2.66-1.94,5.84-4.05,9.13-4.38,1.14-.74,1.92-.23,2.35,1.54.65-1.77,1.57-3.02,2.76-3.73,0,0,.01,0,.01,0Z"/>
  <path class="st119" d="M110.35,70.75c-.36-.04-.59,0-.73.36-1.27-.68-2.8-1.31-4.14-1.89-.26-.11-1.51-.34-.61-.66,1.85.71,3.65,1.45,5.48,2.19Z"/>
  <path class="st93" d="M131.18,48.5c3.07-1.43,3.71,4.54.67,5.27-.16.72-.5,1.39-1.03,2.02l.3.45c-1.38,2.62-2.26,5.41-2.66,8.36-1.99,2.19-2.88,3.36-3.83,6.14.11,2.13-1.24,3.43-2.95,4.38-.33-.13-.9-.14-1.46-.36l-.64-.67c.38-2.9,1.13-5.38,3.4-7.31.71-4.61,2.79-8.68,5.2-12.67.62-1.72,1.13-3.34,1.55-4.87.15-.87.68-1.13,1.46-.73h-.01Z"/>
  <path class="st163" d="M129.72,49.23c1.84-.07-.1,2.22-.29,2.81-1.46,4.51-3.14,6.52-4.65,10.31-.6,1.5-.66,3.68-1.16,4.75-.42.89-1.45,1.4-1.72,1.85-.98,1.58-1.44,3.98-1.68,5.81-1.04-.42-2.11-1.13-2.92-1.46.64-.31-.46-.69-.32-1.56.04-.23,2.03-3.86,2.19-4.06.59-.71,1.59-.62,1.97-1.32.81-1.48-.09-3.79.61-4.86.58-.9,1.63-.46,1.98-.94.45-.63-.08-3.53,1.26-4.58.24-.19.61-.11.72-.19.11-.8.61-1.65,1.52-2.53-.25-1.15-.27-2.13-.06-2.94-.2-1.1,1.92-2.01,2.56-1.09h-.01Z"/>
  <path class="st49" d="M136.66,46.31c.34.54,2.2,2.13,1.83,2.55-1.5-.11-1.6.88-2.19,1.83-.6,2.53-1.6,4.78-4.03,5.99-3.27,8.12-4.91,12.18-4.91,12.18-1.32.19-1.6,1.26-1.68,2.49.41,1.69.29,3.06-.34,4.13,1.29-.31,3.79,0,2.19,1.46-.23.23-.35.41-.73.36-1.72-.71-3.42-1.5-5.12-2.19-.13-1.28,1.94-2.23,2.13-2.79.66-1.93.35-3.23,1.81-5.48.63-.97,1.77-1.7,2.18-2.56.57-1.18.35-2.45.7-3.68.46-1.65,1.69-3.17,2.31-4.81l.89-1.71c2.05-1.8,3.41-4.26,4.07-7.38l.88-.39h0Z"/>
  <path class="st115" d="M145.43,53.24c-.02,3.16-1.09,2.69-2.01,4.74-1.36,3.02-1.94,6.6-3.47,9.85-.09.19-.93.83-1.24,1.49-.69,1.49-3.05,6.13-3.35,7.25-.43,1.64.99,2.54-.89,2.92-.16-.11-.81.19-.74-.18,1.39-.29.31-.86.36-1.82.1-1.98,1.12-2.11,1.75-3.37,1.88-3.79,4.62-9.86,5.9-13.5.56-1.58.68-3.61,1.7-5.16.58-.88,1.66-1.04,1.98-2.22h.01Z"/>
  <path class="st79" d="M63.21,46.31c.73.35-.26,1.07-.73,1.09-.84-.1-2.02.65-2.67.63-1.23-.05-2.8-1.42-3.91.1-.38-.15-.77-.23-1.1-.36-.19-.08-.3-.34-.37-.36-.28-.23-.33-.51-.33-.85,0-.46,8.82-1.78,9.08-1.09l.02.85h0Z"/>
  <path class="st85" d="M70.52,54.34c.11.63-.26.87-1.09.73.13,2.11-.32,4.28-1.37,6.51l-1.35,8.11c-.66,3.1-1.61,5.02-3.42,7.51.59,1.3,1.02,2.65,1.29,4.04-1.06.43-1.76.95-2.11,1.54-.37.17-.75.85-1.46.73-.3.43-.93.41-1.27-.06-1.19-1.61.61-8.39,1.78-10.12.15-1.87.72-3.34,1.69-4.41.77-3.28,1.61-5.35,2.22-8.9.23-1.35,1.14-2.37,1.35-3.39.14-.65-.01-2.52.11-2.63.05-.05,1.36-.38,1.43-.39.78-.02,1.54.5,2.19.73h0Z"/>
  <path class="st24" d="M63.21,68.93c-.75,3.19-.29,2.51-1.73,5.75-1.22,2.74-1.97,4.3-1.46,7.47.28,1.75.76,1.13.99,1.36.03.03,0,.24,0,.36-.3.24-.82.22-1.1.36-.24.01-.49-.02-.73,0,.08-2.52-.28-5,.39-7.45.32-1.19,1.1-2.14,1.42-3.33.53-1.97-.28-4.35,2.21-4.54v.02h0Z"/>
  <path class="st24" d="M58.83,84.24c-.88.35-1.37.7-2.56,1.09,0-.61-.02-1.22,0-1.82l1.09-1.82c-.12,1.22.94,1.64,1.47,2.55Z"/>
  <path class="st105" d="M74.91,53.24l.74-.58c6.06,1.85,12.09,4.38,17.53,7.51.26.35.27.73,0,1.09.56.42.79,1.69,0,1.82-.08.73-.45.71-.73,0-3.2-1.73-6.52-3.23-9.96-4.51-.19-.77-1.13-1.34-2.82-1.69-.09.32-.21.31-.37,0l-2.37-2.19c-1.03-.31-1.89-1-2.75-1.45-.07-.45.17-.45.73,0Z"/>
  <path class="st179" d="M63.94,47.04l.86-.16c1.35,1.03,2.93,1.66,4.75,1.89l.24.83c1.85.93,3.67,1.89,5.45,2.87l-.33.78c-.22-.05-.5.03-.73,0-2.88-1.5-5.64-2.14-8.7-3.53-.62-.28-1.61-.25-2.01-.47-.42-.24-.14-.97-.62-1.11-.46-.66.65-2.01,1.1-1.09h0Z"/>
  <path class="st4" d="M79.29,56.89c.12.02.25-.02.37,0,1.11.08,1.48.45,1.1,1.09h-1.46c-.89-.81-2.1-1.38-3.29-1.46-.66-.12-1.02-.36-1.1-.73-1.71-1.08-3.85-1.55-5.12-2.55,3.16-.48,6.72,3.24,9.5,3.65Z"/>
  <path class="st8" d="M63.94,47.04c-.82-.2-.83.47-1.1,1.09-.03,0-.29.32-.51.25l-.22-.25c.15-.22.22-.51.37-.73.23-.34.65-.6.73-1.09.1-.3.22-.3.37,0,.92-.24,1.27.08.37.73h0Z"/>
  <path class="st29" d="M65.04,43.76c-.63.45-.81,1.69-1.1,2.19.5.53.28.73-.37.36-.09.03-.27,0-.37,0-.07,0-.36-.37-.88-.38-2.39-.05-3.97.37-6.25.72-.66.1-1.35-.1-1.64.75-.18-.07-.55.07-.73,0-.61-.25-1.22-.47-1.83-.73-.12-.05-.23-.3-.37-.36-.04-.22.07-.56,0-.73,3.2-.31,6.43-.77,9.7-1.37,1.41.18,2.2.15,2.36-.09.06-.09.25-.24.37-.36.13-.14.53-.22.73-.36.51-.48.7-.28.37.36h0Z"/>
  <path class="st32" d="M63.58,44.13c-.08.12.09.65,0,.73-.06.05-.94-.43-1.62-.39-3.37.23-6.87,1.69-10.44,1.11-.03-.07-.44-.07-.37-.36,1.49-.64,3.06-.2,4.56-.38,2.48-.29,5.51-1.52,7.86-.72h0Z"/>
  <path class="st125" d="M70.52,54.34c1.16.4,2.22.86,3.29,1.46-.23.84-.79,1.76-1.69,2.75-.6,1.84-1.36,3.65-2.31,5.46-1.21,5.18-2.51,10.3-3.92,15.38.17.91,0,1.56-.48,1.95-.98.47-1.92.99-2.92,1.46-2.05-.09,1.38-1.31,1.46-1.66.07-.3-1.44-3.65-1.4-3.93.11-.76,2.27-3.32,2.69-4.61,1.53-4.61,1.19-10.06,3.25-14.62.65-1.43.49-2.31-.16-3.62h2.19s0-.02,0-.02Z"/>
  <path class="st164" d="M74.54,55.8c.42.18.79.4.37.73-.49.13-1.84,1.23-2.03,1.8-1.37,4.07-1.96,8.94-3.33,13.08-.34,1.01-1.3,1.91-1.5,2.88s.11,2.06-.08,2.78c-.04.17-1.99.59.36,1.34l-.73.72,1.82.37c-1.33.67-2.7,1.19-4.02,1.82-.82-2.06.27-3.11.65-4.64,1.1-4.4,2.1-11.17,3.98-15.33.25-.56.98-.53,1.15-1.05.19-.56-.02-1.23.26-1.94.18-.45,1.89-2.34,2.36-2.57.15-.07.51.05.73,0h0Z"/>
  <path class="st95" d="M79.66,56.89c.89.13,1.61-.58,3.09.41.66.44.18.95.25,1,.49.41,5.77,1.99,7.03,2.64.83.42,2.34,1.1,2.41,2.15l-.66.63c-.52.06-5.92-1.76-5.55-2.82-.16-.06-.38-.26-.73-.36-1.12-.71-3.11-1.78-4.38-1.82-.14-.23-.22-.51-.37-.73-.31-.45-.68-.76-1.1-1.09h.01Z"/>
  <path class="st125" d="M76,56.53c-.3-.02-.87-.06-1.1,0l-.37-.73h.37c.36.23.85.29,1.1.73Z"/>
  <path class="st43" d="M86.23,60.9c1.72.57,4.7,2.06,6.21,2.19.24.02.49,0,.73,0,1.43.57,2.77,1.17,4.02,1.82.67.64.06,1.13-1.83,1.46-.57.19-1.37.9-1.83,1.09-1.24.53-2.65.84-3.65,1.82-1.13.35-1.37.69-2.19,1.09-.66.32-1.68.3-2.19,1.09-.31.03-.64,0-.73.36-.12.02-.25-.03-.37,0-1.07.22-.66-.53-.83-1.16-.99-3.64.06-5.29,1.51-8.56.27-.61.05-1.3,1.15-1.23v.03h0Z"/>
  <path class="st152" d="M142.51,42.67l.28.45c-1.49.64-2.9,1.44-4.36,2.14-.65.31,0,.7-1.77.69-.21.7-.52.7-.73,0-.18-1.07,1-1.87,1.83-1.09-.12-.71.19-.83.73-.36,1.31-.67,2.72-1.18,4.02-1.82h0Z"/>
  <path class="st117" d="M109.25,85.34c-2.14-.82-.95-.74-1.55-1.37-4.56-4.71-8.37-8.37-11.97-14.31,2.2-.39,2.18,1.52,3.08,2.58.76.89,1.61,1.82,2.4,2.71,2.77,3.14,6.86,6.37,8.04,10.39Z"/>
  <path class="st169" d="M100.48,66.74c-.54-.1-1.32.12-1.83,0-.46-.11-.52-.42-.73-.73-.33-.09-.32-.21,0-.36,0,0,2.56,1.09,2.56,1.09Z"/>
  <path class="st158" d="M97.93,65.64c.04.12-.05.29,0,.36-.72.24-1.95.17-2.56.36.61-.77,2.1-.29,1.83-1.46.04-.33.16-.31.37,0-.01.31.29.54.37.73h-.01Z"/>
  <path class="st32" d="M65.77,43.03c-.13.24-.24.49-.37.73-.13.03-.3-.04-.37,0l-.37-.36c.24-.18.68-1.39,1.1-.36h.01Z"/>
  <path class="st76" d="M93.91,55.8l.55-1.46c.43,0-.1,1.03.38,1.12.68.13,3.82.1,4.55-.03l.09,1.51c-1.06,1.87-.98,3.28.25,4.21.39-1.04,1-.77,1.49-.25.99.68.99,1.5,0,2.19-.32.07-.67.28-1.1.36-2.15,1.38-7.31,1.47-6.21-1.82-.29-.73-.3-1.86,0-2.55-.27-1.09-.27-2.19,0-3.28Z"/>
  <path class="st20" d="M97.56,34.28c.16,2.02.51,4.16.73,6.2-.53-.1-2.34.17-2.54-.02-.24-.23-.59-5.46-.38-5.82.06-.1,1.63.21,2.19-.36Z"/>
  <path class="st168" d="M100.12,57.26c.4.54.65,1.15.73,1.82.97-.69,1.15-.04.37.73.62.18.62.54,0,1.09-.42.28-.82-.52-.91,1.46-3.66-1.67-2.13-4.11-.92-6.93.03,0,.07-.46.36-.36-.32.91.26,1.65.37,2.19Z"/>
  <path class="st112" d="M93.91,55.8v3.28c-.1.32-.23.31-.37,0-.37-.65-.26-1.77,0-2.55v-5.47c.68,1.21.36,3.24.37,4.74Z"/>
  <path class="st173" d="M100.48,56.16c.08.43.26.73.37,1.09.4.96.4,1.57,0,1.82-.02.48.02.97,0,1.46h-.36c.17-1.17-.14-2.17-.37-3.28.12-.91-.37-2.29.37-2.92,0,.56-.09,1.33,0,1.82h-.01Z"/>
  <path class="st9" d="M95.73,17.5h-.37c.06-.64.19-1.83-.37-2.19.01-.36-.02-.73,0-1.09h.37c0,.54.76,2.28.37,3.28Z"/>
  <path class="st73" d="M115.83,51.06c-.11.73-.84,1.33-2.19,1.82l.02.58c-2.27,1.5-4.69,2.7-7.28,3.61-.84,1.15-1.66,1.45-3.03,1.74-.82.92-1.53,1.25-2.13,1.01-.03-.31,0-.63-.37-.73.02-.61-.02-1.22,0-1.82,0,.02.24.06.37.36.11.27-.23,1,.18,1.09.8-.8,1.54-1.62,2.47-2.28,1.14-.82,3.39-2.18,4.66-2.46.62-.14,2.39-.02,2.49-.09.15-.1.23-.71.65-.96,1.22-.71,2.77-1.69,4.17-1.87h0Z"/>
  <path class="st133" d="M129.72,43.76c1.16.81.34,1.85-.7,2.36-4.96,2.44-10.13,4.87-15,7.15l-.38-.38c.64-.45,1.45-1.34,2.19-1.82,3.31-2.17,7.58-4.19,11.22-6.12.78-.42,1.46-1.17,2.3-1.54.13.1.29.34.37.36h0Z"/>
  <path class="st27" d="M137.76,44.86c-.66.33-1.31.83-1.83,1.09.16,1.13-1.85,1.95-2.56,1.09-1.17.68-3.23-.56-2.56-1.82-.64.33-.88-.15-.73-1.46.03,0,.11-.38.37-.36l2.99,1.03c1.37-.61,4.21-1.64,4.31.43h0Z"/>
  <path class="st40" d="M130.81,45.22c.77,1.16-1.71,2.9-2.56,1.82-2.52,1.47-5.41,2.7-8.21,3.82l-.8,1.17c-.93.42-1.83.71-2.7.87-2.8,2.23-6.68,4.33-10.25,5.3-1.05,1.47-3.22,2.7-5.08,2.7,0-.36.03-.74,0-1.09.74-.24,1.27-1.39,1.83-1.64.72-.32,1.93-.05,2.14-.24.14-.12,0-.86.41-1.22.85-.75,4.01-1.45,5.02-1.93s2.08-1.25,3.02-1.91c.97-.33,2.19-.66,3.07-1.14,3.75-2.04,7.64-3.88,11.61-5.83.61-.3,2.2-1.28,1.39-2.15.09.03.27,0,.37,0,.43.31.55,1.23.73,1.46h.01Z"/>
  <path class="st197" d="M138.49,44.49c-.24.12-.49.24-.73.36-1.49-2.39-3.3.51-4.5.29-.28-.05-2.5-1.3-2.8-1.75.74.04,1.53.34,2.05.33,1.83-.02,4.66-1.27,5.99.76h-.01Z"/>
  <path class="st76" d="M93.54,59.08c.32.39.27,1.62,0,2.19-.1.32-.23.31-.37,0-.01-.36,0-.73,0-1.09-.71-.33-.71-.76,0-1.09,0-.8-.27-2.05.37-2.55v2.55h0Z"/>
  <path class="st150" d="M76.37,51.06l15.85,6.89.96,1.14v1.09l-.73,1.46c.09-1.12-.61-1.53-1.51-1.96-3.99-1.91-11.96-5.57-16.04-6.42-1.16-1.85-4.12-1.68-5.12-3.65l.77-.52,5.8,1.98h.02Z"/>
  <path class="st84" d="M76.37,51.06c-2.63.15-4.38-.78-6.58-1.46-2.16-.67-4.04-.58-5.85-2.55-.09-.1-.07-.59-.37-.73.03,0,.33-.3.37-.36.73.41,1.63-.14,2.29.06.44.13.69.67,1.04.82,3.1,1.26,6.27,2.43,9.1,4.23h0Z"/>
  <path class="st83" d="M137.39,53.61c-1.29,3.57-1.03,4.87-3.45,8.05-1.66,2.19-4.97,9.91-5.32,12.59-.12.89.44,1.91.36,1.97-.1.08-.57-.16-1.46.73.42-1.24-1.95-.62-2.19-1.46.99-2.03,1.57-4.26,1.75-6.69l.81-.92c2.19-5.26,4.45-10.58,8.03-15l1.46.73h0Z"/>
  <path class="st59" d="M125.7,51.06l-.71.91c-2.55,1.21-5.11,2.36-7.69,3.47-1.32,1.67-2.98,2.51-5.12,2.55-2.99,1.47-6.1,3.02-9.13,4.38-1.94.4-1.13-2.06.63-1.81l.33-.67c1.1-.25,1.84-.8,2.22-1.65,3.08-.99,6.07-2.36,8.97-4.09l.65.56c.75-.76,1.69-1.08,2.82-.94-.16-.5.25-.81,1.26-.93.41-1.02,4.81-3.31,5.5-3.1.78.24.86.75.29,1.33h-.02Z"/>
  <path class="st64" d="M125.7,55.8l-1.28-3.29-7.12,3.29c-.27-.11-.26-.23,0-.36,2.81-1.39,5.59-2.96,8.4-4.38.15-.87.68-1.13,1.46-.73,1.59,2.81.87,3.93-1.46,5.47Z"/>
  <path class="st28" d="M128.25,47.04c.94.42.85,1.05.06,1.66-3.48.8-7.12,2.39-9.43,4.99-1.09.08-2.11.41-3.05,1-.36.13-1.32.35-1.41.41-.04.03.34.83-.24,1.04l-.17-.72c-2.83.66-4.17,3.57-7.68,2.92-.22.46,1.56.42.73,1.09-.04.03-.56-.08-.94.14-.12.07-.12.41-.45.57-.27.13-.92-.11-1.13.07-.16.14.07.86-.06,1-.31.32-2.89-.55-1.43,1.14-.77.35-.7.47-1.83.73-.01-.73.02-1.46,0-2.19,4.56-2.98,9.95-5.04,14.71-8.03,1.47-.92.92-.24,1.99-.62.79-.28,1.34-1.47,1.94-1.74,2.72-1.23,5.47-2.4,8.4-3.47h0Z"/>
  <path class="st107" d="M117.29,55.43v.36c-1,.74-1.75,5.9-3.48,4.02-.67-.73-.02-2.24-1.64-1.83,1.7-.84,3.41-1.71,5.12-2.55Z"/>
  <path class="st168" d="M93.91,61.63c.48,1.08-.07,1.52,1.65,2.17,2.52.96,2.37-.43,3.71-.64.42-.06.8.3.85.29-.49.66-1.79,1.35-2.56,1.46-.11.02-.25,0-.37,0-1.44-.02-2.6-.94-3.97-1.15-.16-.16-.02-.47-.05-.67-.07-.56.02-1.23,0-1.82h.37c.16-.18.28-.06.37.36Z"/>
  <path class="st2" d="M133.37,47.04c.02,1.18-.71,1.67-2.19,1.46-.48.24-.97.48-1.46.73-.67.34-1.67.65-2.56,1.09-.49.24-.98.48-1.46.73-.33-.86-.67-.77-1.43-.54-1.86.56-3.5,2.49-5.18,3.24-.89.4-2.29.6-3.25.94,1.24-.42.65-1.41.73-1.46.35-.21,1.63.49,2.19.36.23-.43-1.59-.47-.73-1.09.19-.14,1.2.14,1.61.02s.14-.97.57-1.31c.35-.27,1.38-.26,1.99-.58,1.63-.86,2.6-1.71,4.53-2.42,1.23-.45,1.47.59,1.54-1.19.98-.36,1.91-.95,2.56-1.82.44.54,1.85,1.71,2.56,1.82l-.02.02h0Z"/>
  <path class="st51" d="M136.66,45.95v.36c-.56,1.96-1.54,4.56-2.62,6.32-.67,1.1-2.22,2.3-3.23,3.16.23-.61.13-1.94.46-2.45.25-.38,1.49-.63,1.65-.9.46-.78.11-4.39-1.75-3.94.59-.3,1.42-1.07,2.19-1.46s1.72-.67,2.56-1.09h.74,0Z"/>
  <path class="st80" d="M135.93,52.88c-2,5.52-6.21,9.77-8.14,16.13-.7,2.32.01,5.79-2.46,6.48-.09-.31-.41-3.73-.38-4.18.02-.47.48-2.2.72-2.51.37-.48,1.41-.21,2.18-1.2,2.3-2.99,1.71-9.06,3.9-11.42.74-.79,1.96-.92,2.88-2.23.69-.97.97-2.13,1.67-3.26.15.84-.09,1.44-.37,2.19h0Z"/>
  <path class="st125" d="M66.14,80.23c-.12-.13-.23-1.36.54-1.09,1.13.4-.19,1.47-.54,1.09Z"/>
  <path class="st143" d="M93.91,61.63c-.04-.08-.32-.19-.37-.36v-2.19h.37v2.55Z"/>
  <g class="st86">
    <g class="st86">
      <g class="st86">
        <g class="st86">
          <path d="M246.45,90.38c-2.77,0-5.19-.44-7.26-1.32-2.07-.88-3.83-2.02-5.28-3.42-1.45-1.4-2.65-2.88-3.59-4.45h-.49v8.11h-8.31V16.5h8.55v28h.34c.88-1.5,2.03-2.93,3.44-4.3,1.42-1.37,3.16-2.49,5.23-3.37,2.07-.88,4.5-1.32,7.3-1.32,4.53,0,8.49,1.13,11.9,3.4,3.4,2.26,6.06,5.45,7.96,9.55,1.91,4.1,2.86,8.92,2.86,14.46s-.95,10.31-2.83,14.41c-1.89,4.1-4.54,7.3-7.94,9.6-3.4,2.3-7.37,3.44-11.9,3.44ZM245.13,82.7c3.19,0,5.94-.81,8.23-2.44,2.3-1.63,4.06-3.93,5.3-6.91,1.24-2.98,1.86-6.47,1.86-10.48s-.62-7.53-1.86-10.48c-1.24-2.95-3-5.23-5.28-6.84-2.28-1.61-5.03-2.42-8.26-2.42s-6.04.82-8.35,2.47c-2.31,1.65-4.08,3.94-5.3,6.89-1.22,2.95-1.83,6.41-1.83,10.38s.61,7.4,1.83,10.38c1.22,2.98,3,5.3,5.33,6.96,2.33,1.66,5.11,2.49,8.33,2.49Z"/>
          <path d="M293.03,90.28c-3.42,0-6.51-.61-9.26-1.83-2.75-1.22-4.94-3.04-6.57-5.45-1.63-2.41-2.44-5.36-2.44-8.84,0-3.03.6-5.5,1.81-7.4,1.2-1.91,2.8-3.4,4.79-4.5,1.99-1.09,4.23-1.91,6.72-2.47,2.49-.55,5.01-.99,7.55-1.32,3.29-.42,5.91-.75,7.87-.98,1.96-.23,3.37-.61,4.25-1.15.88-.54,1.32-1.47,1.32-2.81v-.39c0-2.05-.43-3.84-1.29-5.35-.86-1.51-2.15-2.69-3.86-3.52-1.71-.83-3.8-1.25-6.28-1.25s-4.63.4-6.47,1.2c-1.84.8-3.32,1.85-4.45,3.15-1.12,1.3-1.85,2.72-2.17,4.25l-8.45-1.22c.72-3.26,2.1-5.99,4.15-8.18,2.05-2.2,4.58-3.87,7.57-5.01,3-1.14,6.24-1.71,9.72-1.71,2.47,0,4.91.33,7.3.98,2.39.65,4.54,1.69,6.45,3.1,1.91,1.42,3.43,3.27,4.57,5.55,1.14,2.28,1.71,5.08,1.71,8.4v35.76h-8.4v-7.38h-.39c-.62,1.27-1.56,2.55-2.83,3.84-1.27,1.29-2.96,2.36-5.06,3.22-2.1.86-4.71,1.29-7.84,1.29ZM294.35,82.7c3.35,0,6.11-.62,8.28-1.86,2.17-1.24,3.78-2.85,4.84-4.84,1.06-1.99,1.59-4.1,1.59-6.35v-6.94c-.33.36-.99.68-2,.98-1.01.29-2.21.56-3.59.81s-2.8.47-4.25.68c-1.45.21-2.78.4-3.98.56-2.05.26-3.97.71-5.76,1.34-1.79.64-3.24,1.55-4.35,2.74-1.11,1.19-1.66,2.78-1.66,4.76,0,1.73.46,3.19,1.37,4.4.91,1.21,2.18,2.12,3.81,2.76,1.63.64,3.53.95,5.72.95Z"/>
        </g>
      </g>
    </g>
    <g class="st86">
      <g class="st86">
        <g class="st86">
          <path d="M325.44,89.3v-52.96h8.21v8.26h.34c.98-2.7,2.61-4.89,4.91-6.55,2.3-1.66,5.06-2.49,8.28-2.49.72,0,1.45.03,2.2.1.75.07,1.33.11,1.76.15v8.55c-.33-.1-.98-.21-1.95-.34-.98-.13-2.05-.2-3.22-.2-2.21,0-4.23.49-6.06,1.47s-3.27,2.4-4.32,4.28c-1.06,1.87-1.59,4.18-1.59,6.91v32.83h-8.55Z"/>
        </g>
      </g>
    </g>
    <g class="st86">
      <g class="st86">
        <g class="st86">
          <path d="M403.32,109.72h-8.5v-28.53h-.34c-.95,1.56-2.14,3.05-3.59,4.45-1.45,1.4-3.18,2.54-5.2,3.42-2.02.88-4.43,1.32-7.23,1.32-4.49,0-8.45-1.15-11.87-3.44-3.42-2.3-6.08-5.5-7.99-9.6-1.91-4.1-2.86-8.91-2.86-14.41s.95-10.36,2.86-14.46c1.91-4.1,4.57-7.29,7.99-9.55,3.42-2.26,7.38-3.4,11.87-3.4,2.83,0,5.29.44,7.38,1.32,2.08.88,3.84,2,5.28,3.37,1.43,1.37,2.59,2.8,3.47,4.3h.49v-8.16h8.26v73.38ZM379.72,82.7c3.26,0,6.04-.83,8.35-2.49s4.09-3.98,5.33-6.96c1.24-2.98,1.86-6.44,1.86-10.38s-.61-7.43-1.83-10.38c-1.22-2.95-2.99-5.24-5.3-6.89-2.31-1.64-5.11-2.47-8.4-2.47s-5.89.81-8.18,2.42-4.06,3.89-5.3,6.84c-1.24,2.95-1.86,6.44-1.86,10.48s.62,7.5,1.86,10.48c1.24,2.98,3.01,5.29,5.33,6.91,2.31,1.63,5.03,2.44,8.16,2.44Z"/>
          <path d="M432.41,90.13c-3.55,0-6.74-.76-9.58-2.27s-5.07-3.79-6.72-6.84c-1.65-3.04-2.47-6.86-2.47-11.46v-33.22h8.55v32.59c0,4.37,1.08,7.7,3.25,10.02,2.17,2.31,5.17,3.47,9.01,3.47,2.54,0,4.84-.54,6.91-1.61,2.07-1.08,3.71-2.7,4.91-4.89,1.21-2.18,1.81-4.92,1.81-8.21v-31.37h8.55v52.96h-8.26v-12.85h1.81c-1.69,4.85-4.07,8.35-7.13,10.48-3.06,2.13-6.61,3.2-10.65,3.2Z"/>
          <path d="M471.22,26.81c-1.63,0-3.01-.56-4.15-1.69-1.14-1.12-1.71-2.48-1.71-4.08s.57-2.95,1.71-4.05c1.14-1.11,2.51-1.66,4.1-1.66s3.02.55,4.18,1.66c1.16,1.11,1.73,2.48,1.73,4.1s-.58,2.91-1.73,4.03c-1.16,1.12-2.53,1.69-4.13,1.69ZM466.92,89.3v-52.96h8.55v52.96h-8.55Z"/>
        </g>
      </g>
    </g>
    <g class="st86">
      <g class="st86">
        <g class="st86">
          <path d="M510.28,36.34v7.33h-28.09v-7.33h28.09ZM490.94,22.76h8.55v53.3c0,2.18.45,3.75,1.34,4.69.9.95,2.45,1.42,4.67,1.42.65,0,1.41-.03,2.27-.1.86-.07,1.65-.11,2.37-.15l.83,7.23c-.88.16-1.86.28-2.93.34s-2.1.1-3.08.1c-4.56,0-8.04-1.09-10.43-3.27-2.39-2.18-3.59-5.34-3.59-9.48V22.76Z"/>
        </g>
      </g>
    </g>
    <g class="st86">
      <g class="st86">
        <g class="st86">
          <path d="M544.76,90.47c-4.85,0-9.11-1.16-12.78-3.47-3.66-2.31-6.51-5.54-8.55-9.67-2.04-4.14-3.05-8.91-3.05-14.32s1.02-10.24,3.05-14.39c2.04-4.15,4.89-7.39,8.55-9.72,3.66-2.33,7.92-3.49,12.78-3.49s9.11,1.17,12.78,3.49c3.66,2.33,6.51,5.57,8.55,9.72,2.04,4.15,3.05,8.95,3.05,14.39s-1.02,10.18-3.05,14.32c-2.04,4.14-4.89,7.36-8.55,9.67-3.67,2.31-7.92,3.47-12.78,3.47ZM544.76,82.8c3.42,0,6.3-.86,8.65-2.59,2.35-1.73,4.12-4.09,5.33-7.08,1.21-3,1.81-6.37,1.81-10.11s-.6-7.17-1.81-10.16-2.98-5.38-5.33-7.13c-2.34-1.76-5.23-2.64-8.65-2.64s-6.3.87-8.65,2.61c-2.34,1.74-4.11,4.11-5.3,7.11-1.19,3-1.78,6.4-1.78,10.21s.59,7.16,1.78,10.14c1.19,2.98,2.95,5.33,5.28,7.06,2.33,1.73,5.22,2.59,8.67,2.59Z"/>
        </g>
      </g>
    </g>
  </g>
</svg>